<?xml version="1.0" standalone="no"?>
<!DOCTYPE svg PUBLIC "-//W3C//DTD SVG 1.1//EN" "http://www.w3.org/Graphics/SVG/1.1/DTD/svg11.dtd" >
<svg>
<metadata>
Created by FontForge 20090622 at Fri May  6 06:21:38 2016
 By deploy user
Copyright (c) 2016 by Steppot. All rights reserved.
</metadata>
<defs>
<font id="Lunchtype-Bold" horiz-adv-x="553" >
  <font-face 
    font-family="Lunchtype21"
    font-weight="700"
    font-stretch="normal"
    units-per-em="1000"
    panose-1="2 0 8 3 0 0 0 2 0 4"
    ascent="750"
    descent="-250"
    x-height="491"
    cap-height="693"
    bbox="27 -214 1012 978"
    underline-thickness="50"
    underline-position="-50"
    unicode-range="U+0020-U+FB02"
  />
<missing-glyph horiz-adv-x="500" 
 />
    <glyph glyph-name=".notdef" horiz-adv-x="500" 
 />
    <glyph glyph-name="H" unicode="H" horiz-adv-x="648" 
d="M444 693h139v-693h-139v290h-239v-290h-140v693h140v-271h239v271z" />
    <glyph glyph-name="I" unicode="I" horiz-adv-x="269" 
d="M205 693v-693h-140v693h140z" />
    <glyph glyph-name="L" unicode="L" horiz-adv-x="519" 
d="M64 693h140v-559h286v-134h-426v693z" />
    <glyph glyph-name="T" unicode="T" horiz-adv-x="624" 
d="M584 693v-133h-203v-560h-139v560h-202v133h544z" />
    <glyph glyph-name="period" unicode="." horiz-adv-x="284" 
d="M219 0h-153v153h153v-153z" />
    <glyph glyph-name="colon" unicode=":" horiz-adv-x="284" 
d="M219 0h-153v153h153v-153zM219 305h-153v153h153v-153z" />
    <glyph glyph-name="E" unicode="E" horiz-adv-x="579" 
d="M507 559h-302v-146h284v-132h-284v-147h310v-134h-450v693h442v-134z" />
    <glyph glyph-name="C" unicode="C" horiz-adv-x="652" 
d="M602 222q-12 -107 -76.5 -169t-186.5 -62q-81 0 -135.5 29.5t-88 78.5t-47.5 113.5t-14 135.5q0 69 12.5 133t45 113.5t87.5 79t140 29.5q117 0 182.5 -60t81.5 -161h-148q-11 36 -38.5 59.5t-70.5 23.5h-12q-42 0 -68.5 -18t-42.5 -48t-22 -69t-6 -82q0 -41 5.5 -80
t21 -70.5t42.5 -50.5t70 -19h11q47 0 74 28t37 66h146z" />
    <glyph glyph-name="G" unicode="G" horiz-adv-x="671" 
d="M459 482q-11 36 -41.5 59.5t-72.5 23.5h-11q-42 0 -69 -18t-42.5 -48t-22 -69t-6.5 -82q0 -41 5 -80t19.5 -70.5t41 -50.5t69.5 -19h11q33 0 57.5 10t41.5 27.5t27 40t14 48.5h-165v127h298v-381h-126v80q-9 -16 -21.5 -32t-30.5 -28.5t-42.5 -20.5t-57.5 -8
q-83 0 -137 29.5t-86 78.5t-45 113.5t-13 135.5q0 69 12.5 133t45 113.5t87.5 79t140 29.5q115 0 184 -59t80 -162h-144z" />
    <glyph glyph-name="F" unicode="F" horiz-adv-x="527" 
d="M494 560h-287v-151h274v-131h-274v-278h-142v693h429v-133z" />
    <glyph glyph-name="O" unicode="O" horiz-adv-x="679" 
d="M340 703q86 0 141.5 -29.5t87.5 -79t44.5 -113.5t12.5 -133q0 -71 -14 -135.5t-47 -113.5t-88 -78.5t-137 -29.5t-137 29.5t-88 78.5t-47 113.5t-14 135.5q0 69 12.5 133t45 113.5t87.5 79t141 29.5zM344 128q44 0 71.5 19t43.5 50.5t21.5 70.5t5.5 80q0 43 -6 82t-22 69
t-43 48t-70 18h-11q-42 0 -69 -18t-42.5 -48t-22 -69t-6.5 -82q0 -41 5.5 -80t21 -70.5t42.5 -50.5t71 -19h10z" />
    <glyph glyph-name="D" unicode="D" horiz-adv-x="636" 
d="M205 560v-427h81q46 0 76 14.5t48 42.5t25 67t7 89q0 109 -38.5 161.5t-123.5 52.5h-75zM65 693h215q156 0 229.5 -87.5t73.5 -259.5q0 -77 -15 -140.5t-49.5 -109.5t-91.5 -71t-141 -25h-221v693z" />
    <glyph glyph-name="P" unicode="P" horiz-adv-x="586" 
d="M203 259v-259h-139v693h233q56 0 103.5 -12.5t81.5 -38.5t53 -67.5t19 -99.5q0 -61 -18.5 -102.5t-52 -66.5t-79.5 -36t-101 -11h-100zM203 391h117q50 0 71 19t24 64q-3 43 -28 64t-67 21h-117v-168z" />
    <glyph glyph-name="B" unicode="B" horiz-adv-x="634" 
d="M206 559v-144h117q48 0 71 16t23 56q0 36 -25 54t-69 18h-117zM206 282v-149h135q46 0 70.5 16.5t24.5 57.5q0 36 -26 55.5t-69 19.5h-135zM578 202q0 -108 -62 -155t-186 -47h-264v693h236q126 0 191 -45t65 -153q0 -48 -19.5 -84t-47.5 -57q34 -20 60.5 -58t26.5 -94z
" />
    <glyph glyph-name="R" unicode="R" horiz-adv-x="655" 
d="M443 0l-169 265h-70v-265h-140v693h229q55 0 102.5 -13t82 -39t54 -67t19.5 -96q0 -72 -32 -120t-92 -69l181 -289h-165zM204 560v-163h110q48 0 71.5 19t23.5 62q0 42 -27 62t-68 20h-110z" />
    <glyph glyph-name="Z" unicode="Z" horiz-adv-x="650" 
d="M584 693v-124l-342 -435h345v-134h-526v122l342 437h-324v134h505z" />
    <glyph glyph-name="A" unicode="A" horiz-adv-x="739" 
d="M549 0l-63 165h-235q-14 -39 -31.5 -83l-31.5 -82h-148l270 693h117l272 -693h-150zM369 507l-74 -213h146z" />
    <glyph glyph-name="hyphen" unicode="-" horiz-adv-x="432" 
d="M367 223h-301v127h301v-127z" />
    <glyph glyph-name="plus" unicode="+" horiz-adv-x="508" 
d="M472 241h-153v-149h-129v149h-154v128h154v146h129v-146h153v-128z" />
    <glyph glyph-name="exclam" unicode="!" horiz-adv-x="276" 
d="M83 222l-16 296v175h144v-175l-17 -296h-111zM211 0h-145v149h145v-149z" />
    <glyph glyph-name="equal" unicode="=" horiz-adv-x="589" 
d="M523 333h-457v121h457v-121zM523 111h-457v121h457v-121z" />
    <glyph glyph-name="M" unicode="M" horiz-adv-x="809" 
d="M404 216l188 477h153v-693h-139v403l-154 -403h-97l-153 403v-403h-138v693h153z" />
    <glyph glyph-name="N" unicode="N" horiz-adv-x="671" 
d="M607 0h-146l-258 447v-447h-139v693h146l257 -444v444h140v-693z" />
    <glyph glyph-name="K" unicode="K" horiz-adv-x="700" 
d="M64 0v693h141v-285l257 285h185l-281 -301l276 -392h-170l-200 291l-67 -79v-212h-141z" />
    <glyph glyph-name="divide" unicode="&#xf7;" horiz-adv-x="538" 
d="M504 237h-470v128h470v-128zM344 47h-150v151h150v-151zM344 411h-150v152h150v-152z" />
    <glyph glyph-name="Egrave" unicode="&#xc8;" horiz-adv-x="543" 
d="M384 825l-72 -87l-174 136l93 103zM495 559h-302v-146h284v-132h-284v-147h310v-134h-450v693h442v-134z" />
    <glyph glyph-name="guillemotright" unicode="&#xbb;" horiz-adv-x="712" 
d="M505 474l162 -228l-162 -227h-159l163 227l-163 228h159zM215 474l162 -228l-162 -227h-158l162 227l-162 228h158z" />
    <glyph glyph-name="acute" unicode="&#xb4;" horiz-adv-x="317" 
d="M106 737l-72 90l165 151l86 -108z" />
    <glyph glyph-name="minus" unicode="&#x2212;" horiz-adv-x="425" 
d="M363 244h-301v126h301v-126z" />
    <glyph glyph-name="guillemotleft" unicode="&#xab;" horiz-adv-x="711" 
d="M365 474l-162 -228l162 -227h-158l-162 227l162 228h158zM654 474l-162 -228l162 -227h-158l-162 227l162 228h158z" />
    <glyph glyph-name="brokenbar" unicode="&#xa6;" horiz-adv-x="244" 
d="M62 348v403h121v-403h-121zM62 -167v405h121v-405h-121z" />
    <glyph glyph-name="yen" unicode="&#xa5;" horiz-adv-x="706" 
d="M128 224h153v58h-153v106h90l-90 154l-88 151h158l153 -273l158 273h157l-184 -305h93v-106h-157v-58h157v-106h-157v-118h-137v118h-153v106z" />
    <glyph glyph-name="cent" unicode="&#xa2;" horiz-adv-x="542" 
d="M506 274q-7 -43 -22.5 -75t-37.5 -54.5t-49 -35.5t-57 -18v-101h-122v101q-89 17 -133 83t-44 172q0 99 43 163t134 82v114h122v-115q59 -13 103.5 -54.5t59.5 -109.5h-129q-4 15 -14.5 25t-21.5 15v-237q11 5 22 14.5t13 29.5zM174 345q0 -44 12.5 -78t35.5 -39v238
q-24 -8 -36 -41t-12 -80z" />
    <glyph glyph-name="Ydieresis" unicode="&#x178;" horiz-adv-x="705" 
d="M313 760h-137v135h137v-135zM526 760h-139v135h139v-135zM279 268l-246 425h161l157 -298l162 298h159l-253 -424v-269h-140v268z" />
    <glyph glyph-name="guilsinglright" unicode="&#x203a;" horiz-adv-x="407" 
d="M211 474l162 -228l-162 -227h-159l163 227l-163 228h159z" />
    <glyph glyph-name="tilde" unicode="&#x2dc;" horiz-adv-x="470" 
d="M51 587q6 40 18.5 66.5t30 42.5t37.5 23t41 7q16 0 30 -5.5t27.5 -12t27 -12t28.5 -5.5q5 0 10.5 4t15.5 22h102q-5 -37 -17.5 -63.5t-30 -44t-38.5 -25.5t-42 -8q-16 0 -30.5 6t-28 12.5l-27 12.5t-28.5 6q-5 0 -10 -4t-16 -22h-100z" />
    <glyph glyph-name="emdash" unicode="&#x2014;" horiz-adv-x="1060" 
d="M998 224h-936v123h936v-123z" />
    <glyph glyph-name="endash" unicode="&#x2013;" horiz-adv-x="639" 
d="M577 224h-515v123h515v-123z" />
    <glyph glyph-name="bullet" unicode="&#x2022;" horiz-adv-x="814" 
d="M49 345q0 74 28 139.5t77 114t114.5 77t139.5 28.5t139 -28.5t113.5 -77t76.5 -114t28 -139.5t-28 -139t-76.5 -113.5t-113.5 -76.5t-139 -28t-139.5 28t-114.5 76.5t-77 113.5t-28 139z" />
    <glyph glyph-name="quotedblright" unicode="&#x201d;" horiz-adv-x="537" 
d="M55 475l49 218h159l-88 -218h-120zM281 475l49 218h158l-88 -218h-119z" />
    <glyph glyph-name="quotedblleft" unicode="&#x201c;" horiz-adv-x="528" 
d="M50 475l87 218h118l-50 -218h-155zM269 475l87 218h118l-50 -218h-155z" />
    <glyph glyph-name="quoteright" unicode="&#x2019;" horiz-adv-x="293" 
d="M48 475l49 218h158l-88 -218h-119z" />
    <glyph glyph-name="quoteleft" unicode="&#x2018;" horiz-adv-x="290" 
d="M39 475l87 218h117l-50 -218h-154z" />
    <glyph glyph-name="guilsinglleft" unicode="&#x2039;" horiz-adv-x="407" 
d="M355 473l-163 -227l163 -226h-160l-161 226l161 227h160z" />
    <glyph glyph-name="perthousand" unicode="&#x2030;" horiz-adv-x="1054" 
d="M774 571l-615 -460l-73 96l614 457zM142 535q0 -12 2 -24.5t6 -23t11 -17.5t19 -7t19 7t11 17.5t5.5 23t1.5 24.5t-1.5 23.5t-5.5 21.5t-11.5 16t-18.5 6t-18.5 -6t-12 -16t-6 -21.5t-1.5 -23.5zM46 541q0 29 6.5 57.5t22.5 51t41.5 36.5t63.5 14t64 -14.5t41.5 -37.5
t22 -52t6.5 -58q0 -173 -134 -173q-66 0 -100 42.5t-34 133.5zM532 165q0 -12 2 -24.5t6 -23t11 -17.5t19 -7t19 7t11 17.5t5.5 23t1.5 24.5t-1.5 23.5t-5.5 21.5t-11.5 16t-18.5 6t-18.5 -6t-12 -16t-6 -21.5t-1.5 -23.5zM436 171q0 29 6.5 57.5t22.5 51t41.5 36.5t63.5 14
t64 -14.5t41.5 -37.5t22 -52t6.5 -58q0 -173 -134 -173q-66 0 -100 42.5t-34 133.5zM840 165q0 -12 2 -24.5t6 -23t11 -17.5t19 -7t19 7t11 17.5t5.5 23t1.5 24.5t-1.5 23.5t-5.5 21.5t-11.5 16t-18.5 6t-18.5 -6t-12 -16t-6 -21.5t-1.5 -23.5zM744 171q0 29 6.5 57.5
t22.5 51t41.5 36.5t63.5 14t64 -14.5t41.5 -37.5t22 -52t6.5 -58q0 -173 -134 -173q-66 0 -100 42.5t-34 133.5z" />
    <glyph glyph-name="circumflex" unicode="&#x2c6;" horiz-adv-x="460" 
d="M285 513l-52 77l-52 -77h-140l144 180h94l140 -180h-134z" />
    <glyph glyph-name="daggerdbl" unicode="&#x2021;" horiz-adv-x="386" 
d="M350 365h-98v-164h98v-127h-98v-240h-119v240h-97v127h97v164h-97v126h97v260h119v-260h98v-126z" />
    <glyph glyph-name="dagger" unicode="&#x2020;" horiz-adv-x="378" 
d="M346 365h-98v-532h-119v532h-97v126h97v260h119v-260h98v-126z" />
    <glyph glyph-name="ellipsis" unicode="&#x2026;" horiz-adv-x="785" 
d="M214 0h-152v153h152v-153zM468 0h-152v153h152v-153zM723 0h-152v153h152v-153z" />
    <glyph glyph-name="quotedblbase" unicode="&#x201e;" horiz-adv-x="528" 
d="M173 -94h-119l53 244h159zM388 -94h-119l53 244h158z" />
    <glyph glyph-name="quotesinglbase" unicode="&#x201a;" horiz-adv-x="295" 
d="M166 -94h-119l53 244h158z" />
    <glyph glyph-name="Euro" unicode="&#x20ac;" horiz-adv-x="692" 
d="M642 159q-9 -49 -33 -81.5t-57.5 -52t-73.5 -27.5t-80 -8q-65 0 -113.5 18t-83 49t-55 73.5t-28.5 91.5h-74v97h63v56h-63v97h74q19 108 85.5 170.5t194.5 62.5q47 0 88.5 -10t74 -31t54 -53t27.5 -76h-157q-5 9 -14.5 17.5t-21.5 15t-25.5 10.5t-25.5 4
q-21 0 -41.5 -8.5t-37.5 -23.5t-29 -35t-16 -43h213v-97h-230v-56h230v-97h-213q10 -46 44.5 -77.5t79.5 -31.5q32 0 56.5 13t32.5 33h155z" />
    <glyph glyph-name="asciitilde" unicode="~" horiz-adv-x="634" 
d="M586 300q-46 -44 -86 -69.5t-92 -25.5q-32 0 -59 8.5t-52 19.5q-19 8 -37.5 14.5t-35.5 6.5q-18 0 -41 -16.5t-46 -39.5l-88 93q43 39 86 66t90 27q35 0 64.5 -9.5t55.5 -20.5q17 -7 33 -12.5t30 -5.5q22 0 44.5 16t44.5 36z" />
    <glyph glyph-name="braceright" unicode="}" horiz-adv-x="394" 
d="M361 231h-61q-18 0 -23 -10.5t-5 -30.5v-213q0 -78 -34 -111t-109 -33h-73v115h58q17 0 23.5 8t6.5 25v224q0 25 12 47t28 41q-16 19 -28 41.5t-12 47.5v221q0 17 -6.5 25t-23.5 8h-58v115h73q75 0 109 -33t34 -111v-210q0 -19 5 -29.5t23 -10.5h61v-126z" />
    <glyph glyph-name="bar" unicode="|" horiz-adv-x="244" 
d="M62 -167v918h121v-918h-121z" />
    <glyph glyph-name="braceleft" unicode="{" horiz-adv-x="393" 
d="M33 357h61q18 0 23 10.5t5 29.5v210q0 78 34 111t109 33h73v-115h-58q-17 0 -23.5 -8t-6.5 -25v-221q0 -25 -12 -47.5t-28 -41.5q16 -19 28 -41t12 -47v-224q0 -17 6.5 -25t23.5 -8h58v-115h-73q-75 0 -109 33t-34 111v213q0 20 -5 30.5t-23 10.5h-61v126z" />
    <glyph glyph-name="z" unicode="z" horiz-adv-x="537" 
d="M473 394l-237 -271h239v-123h-415v97l239 271h-225v123h399v-97z" />
    <glyph glyph-name="y" unicode="y" horiz-adv-x="594" 
d="M53 491h141l112 -319l114 319h142l-239 -569q-10 -23 -22 -44t-28 -36.5t-37 -25t-48 -9.5q-22 0 -43.5 5t-47.5 14v120q16 -4 30 -8q12 -3 24 -5t19 -2q10 0 19 9t17 23.5t15 32.5t13 36z" />
    <glyph glyph-name="x" unicode="x" horiz-adv-x="644" 
d="M426 0l-104 162l-102 -162h-166l192 254l-182 237h166l95 -149l91 149h166l-180 -237l188 -254h-164z" />
    <glyph glyph-name="w" unicode="w" horiz-adv-x="831" 
d="M269 196l91 295h112l88 -294l83 294h140l-161 -491h-116l-91 300q-11 -33 -22.5 -72l-23 -78.5l-23 -78l-21.5 -71.5h-116l-161 491h139z" />
    <glyph glyph-name="v" unicode="v" horiz-adv-x="587" 
d="M293 171l113 320h142l-198 -491h-115l-195 491h141z" />
    <glyph glyph-name="u" unicode="u" horiz-adv-x="579" 
d="M398 0v49q-10 -17 -25 -28t-33 -18t-37.5 -10t-37.5 -3q-46 0 -84 12.5t-65.5 37t-42.5 61t-15 84.5v306h132v-308q0 -18 8.5 -32t22.5 -23.5t31.5 -14.5t36.5 -5q39 0 68 22.5t29 63.5v297h132v-491h-120z" />
    <glyph glyph-name="t" unicode="t" horiz-adv-x="388" 
d="M336 3q-33 -8 -57.5 -9t-34.5 -1q-69 0 -103.5 40t-34.5 106v232h-67v120h67v144h132v-144h105v-120h-105v-226q0 -30 25 -30q5 0 15 1t21 2.5l21 3t16 2.5v-121z" />
    <glyph glyph-name="s" unicode="s" horiz-adv-x="498" 
d="M189 138q5 -18 25 -24.5t40 -6.5q22 0 42.5 9.5t20.5 33.5q0 18 -23.5 25.5t-56.5 13.5q-32 6 -63.5 13t-56.5 23t-41 44t-16 75q0 41 15 70.5t41 48.5t60 28t72 9q37 0 69.5 -9t56.5 -27t38.5 -44.5t16.5 -62.5h-130q-5 12 -18 21t-34 9q-35 0 -46 -10t-11 -24
q0 -11 7 -18t19 -12t27 -8t32 -6q32 -5 63 -12.5t55.5 -24t39.5 -45.5t15 -78q0 -45 -17.5 -75t-45 -48.5t-62.5 -26.5t-69 -8q-39 0 -75 7.5t-64 25t-45.5 45.5t-19.5 69h139z" />
    <glyph glyph-name="r" unicode="r" horiz-adv-x="401" 
d="M286 375q-45 0 -69 -25t-24 -86v-264h-131v491h126v-38q12 13 29 24q14 9 33.5 16.5t42.5 7.5q12 0 35.5 -1t40.5 -6v-129q-24 6 -48.5 8t-34.5 2z" />
    <glyph glyph-name="p" unicode="p" horiz-adv-x="557" 
d="M62 -203v694h128v-37q18 23 48.5 35t53.5 12q112 0 171 -67t59 -187q0 -56 -13.5 -103.5t-41.5 -81.5t-71 -53t-102 -19q-19 0 -36 5t-30.5 11.5t-22.5 14.5t-12 14v-238h-131zM287 387q-26 0 -44 -12.5t-29.5 -33t-17 -45.5t-5.5 -50t5.5 -50t16.5 -44.5t29 -31.5
t44 -12q25 0 44 10.5t32 29t19.5 44t6.5 54.5t-6.5 55t-19 45t-31.5 30t-44 11z" />
    <glyph glyph-name="q" unicode="q" horiz-adv-x="556" 
d="M364 -203v238q-3 -6 -12 -14t-22.5 -14.5t-30.5 -11.5t-36 -5q-59 0 -102 19t-71 53t-41.5 81.5t-13.5 103.5q0 120 59 187t171 67q23 0 53.5 -12t48.5 -35v37h128v-694h-131zM270 387q-25 0 -44 -11t-31.5 -30t-19 -45t-6.5 -55t6.5 -54.5t19.5 -44t32 -29t44 -10.5
t43.5 12t29.5 31.5t16.5 44.5t5.5 50t-5.5 50t-17 45.5t-29.5 33t-44 12.5z" />
    <glyph glyph-name="o" unicode="o" horiz-adv-x="574" 
d="M287 500q61 0 105 -18.5t73 -51.5t43 -80t14 -104q0 -124 -58.5 -190t-176.5 -66q-117 0 -176 66t-59 190q0 57 14 104t43 80t73 51.5t105 18.5zM287 381q-27 0 -46 -11t-31 -30t-17.5 -43.5t-5.5 -51.5t5.5 -51t17.5 -42t31 -29t46 -11t46 11t31 29t17.5 42t5.5 51
t-5.5 51.5t-17.5 43.5t-31 30t-46 11z" />
    <glyph glyph-name="n" unicode="n" horiz-adv-x="580" 
d="M188 491v-40q22 29 54 39.5t62 10.5q48 0 88 -12.5t69 -37t45 -61t16 -84.5v-306h-132v304q0 18 -8.5 32t-22 23.5t-31 14.5t-36.5 5q-39 0 -68.5 -22.5t-29.5 -63.5v-293h-132v491h126z" />
    <glyph glyph-name="m" unicode="m" horiz-adv-x="826" 
d="M291 501q51 0 85 -13.5t55 -37.5q26 23 61.5 36.5t77.5 13.5q101 0 148.5 -48.5t47.5 -145.5v-306h-132v304q0 39 -20.5 57t-55.5 18t-56.5 -21.5t-21.5 -64.5v-293h-132v304q0 39 -20.5 57t-55.5 18q-36 0 -57 -21.5t-21 -64.5v-293h-132v491h126v-42q7 13 19.5 22.5
t26.5 16t29 10t28 3.5z" />
    <glyph glyph-name="l" unicode="l" horiz-adv-x="255" 
d="M194 693v-693h-132v693h132z" />
    <glyph glyph-name="k" unicode="k" horiz-adv-x="567" 
d="M233 173l-39 -39v-134h-132v693h132v-375l167 173h177l-213 -219l208 -272h-165z" />
    <glyph glyph-name="j" unicode="j" horiz-adv-x="312" 
d="M121 491h132v-491q0 -57 -8.5 -96t-28 -63t-51.5 -34t-78 -10h-53v116q21 0 37 3t27.5 12t17 25t5.5 42v496zM119 582v122h137v-122h-137z" />
    <glyph glyph-name="i" unicode="i" horiz-adv-x="259" 
d="M64 0v491h132v-491h-132zM61 582v122h137v-122h-137z" />
    <glyph glyph-name="h" unicode="h" horiz-adv-x="552" 
d="M193 693v-239q11 16 37 31.5t71 15.5q96 0 154 -49t58 -146v-306h-132v312q0 36 -27 55.5t-65 19.5q-39 0 -66 -22.5t-27 -63.5v-301h-134v693h131z" />
    <glyph glyph-name="g" unicode="g" horiz-adv-x="570" 
d="M213 -54q3 -17 22 -29t48 -12q40 0 68.5 16t28.5 60v54q-9 -19 -39.5 -32t-65.5 -13q-59 0 -101.5 19t-69.5 53t-40 81.5t-13 103.5q0 60 16 107t46 79.5t71.5 50t92.5 17.5q26 0 56 -11.5t50 -35.5v37h128v-497q0 -48 -16 -86t-45.5 -64.5t-69.5 -40t-88 -13.5
q-101 0 -159 36t-65 120h145zM286 387q-25 0 -44 -11t-31.5 -30t-19 -45t-6.5 -55t6.5 -54.5t19.5 -44t32 -29t44 -10.5t43.5 12t29.5 31.5t16.5 44.5t5.5 50t-5.5 50t-17 45.5t-29.5 33t-44 12.5z" />
    <glyph glyph-name="e" unicode="e" horiz-adv-x="561" 
d="M370 306q0 13 -5.5 27.5t-16 26.5t-26 19.5t-36.5 7.5q-23 0 -39.5 -7.5t-28 -19t-17.5 -26t-9 -28.5h178zM510 163q-11 -49 -32 -82t-50 -53t-64.5 -28.5t-75.5 -8.5q-62 0 -106.5 19t-73.5 53t-43 80.5t-14 101.5q0 65 17 112.5t47.5 79t74 47t96.5 15.5q51 0 92 -15.5
t70.5 -47t45.5 -79t16 -110.5v-35h-321q0 -45 27 -74.5t72 -29.5q25 0 50 13t33 42h139z" />
    <glyph glyph-name="d" unicode="d" horiz-adv-x="555" 
d="M374 50q-1 -2 -7 -11.5t-19.5 -20.5t-35.5 -19.5t-54 -8.5q-109 0 -166 66.5t-57 189.5q0 57 15 103.5t43.5 80.5t70 52.5t94.5 18.5q27 0 46.5 -7.5t32.5 -15.5q15 -11 26 -23v238h131v-693h-120v50zM268 387q-26 0 -45 -12t-31.5 -32t-18.5 -45.5t-6 -52.5t6 -51.5
t18.5 -43.5t31.5 -30.5t45 -11.5q25 0 43 11t30 29t17.5 40.5t5.5 44.5v20q0 25 -6 49.5t-18 43t-30 30t-42 11.5z" />
    <glyph glyph-name="c" unicode="c" horiz-adv-x="554" 
d="M363 331q-7 25 -30 40.5t-47 15.5q-27 0 -46 -12t-31 -32t-17.5 -45.5t-5.5 -52.5t5.5 -51.5t17.5 -43.5t31 -30.5t46 -11.5q32 0 54 19t30 52h138q-15 -98 -73 -143t-149 -45q-116 0 -175 66t-59 189q0 57 14 103.5t42.5 79.5t72.5 51.5t105 18.5q39 0 74.5 -10t65 -31
t50 -52.5t29.5 -74.5h-142z" />
    <glyph glyph-name="b" unicode="b" horiz-adv-x="556" 
d="M182 0h-120v693h131v-238q10 12 25 23q13 8 32.5 15.5t47.5 7.5q53 0 94.5 -18.5t70 -52.5t43.5 -80.5t15 -103.5q0 -123 -57 -189.5t-163 -66.5q-29 0 -50.5 8.5t-36.5 19.5t-23 20.5t-9 11.5v-50zM288 387q-24 0 -42 -11.5t-30 -30t-18 -43t-6 -49.5v-20
q0 -22 5.5 -44.5t17.5 -40.5t30 -29t43 -11q26 0 45 11.5t31.5 30.5t18.5 43.5t6 51.5t-6 52.5t-18.5 45.5t-31.5 32t-45 12z" />
    <glyph glyph-name="a" unicode="a" horiz-adv-x="532" 
d="M246 101q18 0 35 7t31 18t22.5 26t8.5 32v14l-97 -4q-34 -2 -49 -14t-15 -32q0 -47 64 -47zM74 349q0 31 15 59t42 48t63.5 32t80.5 12q57 0 95 -15t61 -42t33 -65.5t10 -84.5v-293h-115v54q-3 -6 -14 -17t-28.5 -21.5t-41 -18t-50.5 -7.5q-35 0 -67 8.5t-56 28
t-38.5 49.5t-14.5 74q0 40 16 68t42 46t60.5 26.5t71.5 10.5l104 5v11q0 62 -67 62q-25 0 -40 -5.5t-25 -24.5h-137z" />
    <glyph glyph-name="grave" unicode="`" horiz-adv-x="295" 
d="M168 525l-135 153l109 87l118 -165z" />
    <glyph glyph-name="underscore" unicode="_" horiz-adv-x="632" 
d="M570 -178h-508v120h508v-120z" />
    <glyph glyph-name="bracketright" unicode="]" horiz-adv-x="329" 
d="M268 -166h-216v115h89v687h-89v115h216v-917z" />
    <glyph glyph-name="backslash" unicode="\" horiz-adv-x="518" 
d="M156 759l334 -935h-129l-334 935h129z" />
    <glyph glyph-name="bracketleft" unicode="[" horiz-adv-x="329" 
d="M62 751h216v-115h-89v-687h89v-115h-216v917z" />
    <glyph glyph-name="Y" unicode="Y" horiz-adv-x="713" 
d="M283 268l-246 425h161l157 -299l162 299h159l-253 -424v-269h-140v268z" />
    <glyph glyph-name="X" unicode="X" horiz-adv-x="786" 
d="M720 693l-241 -335l253 -358h-177l-165 249l-163 -249h-173l252 356l-240 337h178l151 -229l151 229h174z" />
    <glyph glyph-name="W" unicode="W" horiz-adv-x="1024" 
d="M706 202l121 491h148l-202 -693h-135l-125 468l-125 -468h-136l-203 693h154l118 -489l127 489h131z" />
    <glyph glyph-name="V" unicode="V" horiz-adv-x="698" 
d="M351 196l160 497h147l-240 -693h-137l-241 693h151z" />
    <glyph glyph-name="U" unicode="U" horiz-adv-x="663" 
d="M59 693h138v-394q0 -34 5.5 -65.5t20 -55.5t41 -38.5t68.5 -14.5q40 0 66 14t41.5 37.5t21.5 55t6 67.5v394h138v-404q0 -69 -15 -124.5t-48 -94t-84.5 -59.5t-123.5 -21q-82 0 -135.5 23.5t-84.5 64t-43 95t-12 116.5v404z" />
    <glyph glyph-name="S" unicode="S" horiz-adv-x="630" 
d="M198 207q12 -41 46.5 -62t78.5 -21q18 0 38 4.5t37 14.5t28 24t11 34q0 23 -11.5 38t-31 25t-45 17t-53.5 13q-40 9 -80 21t-72.5 34.5t-53 59t-20.5 95.5q0 49 18.5 86t51.5 62t77.5 38t95.5 13q60 0 106 -14.5t77 -41.5t48 -64t20 -82h-139q-7 35 -38 53.5t-69 18.5
q-50 0 -80 -18.5t-30 -47.5q0 -17 10.5 -28.5t28 -20t41 -15t49.5 -12.5q41 -10 84 -23.5t78 -38.5t57.5 -64t22.5 -100q0 -55 -20.5 -95.5t-55.5 -66.5t-81.5 -39t-98.5 -13q-56 0 -104.5 12t-85 38.5t-59 67.5t-25.5 98h149z" />
    <glyph glyph-name="Q" unicode="Q" horiz-adv-x="678" 
d="M454 12q-25 -11 -53.5 -16t-64.5 -5q-82 0 -137 29.5t-88 78.5t-47 113.5t-14 135.5q0 69 12.5 133t45 113.5t87.5 79t141 29.5t141.5 -29.5t87.5 -79t44.5 -113.5t12.5 -133q0 -72 -15 -137.5t-51 -116.5l56 -74l-105 -79zM432 259l33 -47q12 29 15 64.5t3 71.5
q0 43 -6.5 82t-22.5 69t-43.5 48t-69.5 18h-11q-42 0 -69 -18t-42.5 -48t-22 -69t-6.5 -82q0 -41 5.5 -80t21 -70.5t42.5 -50.5t71 -19h10q7 0 15 0.5t13 1.5l-39 46z" />
    <glyph glyph-name="J" unicode="J" horiz-adv-x="494" 
d="M168 170q6 -21 18.5 -32.5t35.5 -11.5t37.5 8t22 25t10 44t2.5 65v425h139v-434q0 -52 -5 -100t-26 -85.5t-63 -60t-117 -22.5q-94 0 -143 48.5t-52 130.5h141z" />
    <glyph glyph-name="at" unicode="@" horiz-adv-x="840" 
d="M259 393q8 42 25 66.5t40 37.5t49 17t52 4q47 0 78 -12t49.5 -33.5t26 -51.5t7.5 -66l-5 -114q-1 -16 11.5 -30.5t35.5 -14.5q34 0 46.5 31t12.5 98q0 54 -20.5 102.5t-55.5 85t-82 58t-100 21.5q-56 0 -106.5 -23.5t-88.5 -63t-60.5 -90.5t-22.5 -106q0 -63 23.5 -114
t62.5 -88t89 -57t103 -20q31 0 67 12.5t76 34.5l51 -90q-56 -28 -104 -41t-92 -13q-86 0 -155 27.5t-117.5 77t-75 119t-26.5 152.5t30 153.5t81.5 122t120 80.5t144.5 29q91 0 159 -30t113 -81t67 -118t22 -140q0 -107 -42 -164t-130 -57q-27 0 -48.5 15t-34.5 41
q-11 -15 -28.5 -26.5t-37 -19.5t-39 -12.5t-34.5 -4.5q-32 0 -60.5 7t-49.5 23t-33.5 41.5t-12.5 63.5q0 27 12.5 49t42 38t77 25.5t118.5 9.5q0 34 -18.5 52.5t-52.5 18.5q-20 0 -35 -8.5t-21 -25.5zM401 257q-52 -3 -52 -33q0 -12 13 -20.5t39 -8.5q34 0 57.5 18t31.5 50z
" />
    <glyph glyph-name="question" unicode="?" horiz-adv-x="503" 
d="M38 508q3 51 21 88t46 61t64.5 36t78.5 12q46 0 85 -13.5t67 -39.5t43.5 -63.5t15.5 -84.5q0 -54 -24.5 -99t-69.5 -87q-12 -11 -20.5 -20.5t-14 -18.5t-7.5 -19t-2 -23v-14h-136v15q0 36 7.5 62.5t19.5 46.5t26.5 35l28.5 29q22 22 37.5 42.5t15.5 50.5q0 34 -19 52.5
t-53 18.5q-28 0 -46 -18.5t-21 -48.5h-143zM333 0h-154v153h154v-153z" />
    <glyph glyph-name="greater" unicode="&#x3e;" horiz-adv-x="505" 
d="M66 531l412 -176v-113l-412 -175v135l233 97l-233 97v135z" />
    <glyph glyph-name="less" unicode="&#x3c;" horiz-adv-x="504" 
d="M439 396l-233 -97l233 -97v-135l-412 175v113l412 176v-135z" />
    <glyph glyph-name="semicolon" unicode=";" horiz-adv-x="274" 
d="M215 305h-154v153h154v-153zM177 -106h-105l22 106h-33v153h154v-137z" />
    <glyph glyph-name="nine" unicode="9" horiz-adv-x="588" 
d="M218 166q10 -20 28 -34t44 -14q46 0 71 33t36 96q-47 -33 -120 -33q-60 0 -102.5 20t-69.5 53.5t-40 78t-13 94.5q0 51 17 95.5t48 77.5t74 52.5t94 19.5q70 0 118 -24.5t76.5 -68t41 -103t12.5 -129.5q0 -87 -12.5 -159t-40 -123t-72.5 -79t-109 -28q-61 0 -103 16.5
t-68 42t-38.5 56.5t-15.5 61zM390 467q0 44 -28.5 73t-75.5 29q-21 0 -38.5 -8.5t-30 -22.5t-19.5 -32.5t-7 -38.5t5 -41.5t16 -38.5t29.5 -28t44.5 -11q51 0 77.5 31t26.5 88z" />
    <glyph glyph-name="eight" unicode="8" horiz-adv-x="607" 
d="M55 211q0 45 19.5 87t51.5 71q-26 26 -39.5 59.5t-13.5 71.5q0 50 19.5 88.5t52 64.5t74 39t85.5 13q47 0 88.5 -14.5t73 -41t49.5 -64.5t18 -85q0 -41 -14 -73.5t-38 -57.5q35 -30 53 -71.5t18 -86.5q0 -57 -19.5 -98.5t-53.5 -68.5t-79 -40t-96 -13q-54 0 -99.5 13.5
t-79 41t-52 69t-18.5 96.5zM199 213q0 -23 8 -39.5t22.5 -26.5t33.5 -14.5t41 -4.5q45 0 73.5 20t28.5 65q0 38 -27.5 60.5t-74.5 22.5q-48 0 -76.5 -22.5t-28.5 -60.5zM391 500q0 32 -24.5 51.5t-62.5 19.5q-40 0 -64 -19.5t-24 -51.5q0 -37 23 -53.5t65 -16.5
q41 0 64 16.5t23 53.5z" />
    <glyph glyph-name="seven" unicode="7" horiz-adv-x="566" 
d="M529 680v-118q-1 0 -19 -19t-43 -49.5t-51 -70t-42 -80.5q-26 -64 -41.5 -125.5t-23.5 -109.5q-10 -57 -14 -108h-140v9q0 8 1.5 41t9 81.5t23 108.5t43.5 123q11 26 30 58t37 59l43 63h-292v137h479z" />
    <glyph glyph-name="five" unicode="5" horiz-adv-x="573" 
d="M199 183q8 -27 32 -41t52 -14q93 0 93 111q0 56 -22.5 83t-63.5 27q-30 0 -49 -8.5t-36 -32.5h-135l20 372h397v-137h-267l-6 -73q19 6 40.5 10t42.5 4q107 0 163.5 -63.5t56.5 -182.5q0 -56 -16 -102t-46.5 -78t-74 -49.5t-97.5 -17.5q-44 0 -82 12.5t-68 37t-50.5 60
t-27.5 82.5h144z" />
    <glyph glyph-name="six" unicode="6" horiz-adv-x="602" 
d="M380 540q-9 19 -26 25t-40 6q-37 0 -66.5 -31t-43.5 -97q26 18 58.5 29.5t63.5 11.5q51 0 92.5 -17t71 -49.5t45 -78.5t15.5 -103q0 -60 -19 -106t-52 -77.5t-77.5 -47.5t-95.5 -16q-57 0 -103.5 21t-79.5 61t-51 99t-18 134q0 110 21.5 186.5t57 124t82 69t97.5 21.5
q86 0 142.5 -43.5t64.5 -121.5h-139zM210 236q0 -23 8 -43t21 -35t30.5 -24t36.5 -9q48 0 74 32.5t26 78.5q0 20 -4 40t-15 36t-30 26t-48 10q-22 0 -40.5 -9t-31.5 -24.5t-20 -36t-7 -42.5z" />
    <glyph glyph-name="four" unicode="4" horiz-adv-x="599" 
d="M551 109h-84v-109h-139v109h-296v100l301 472h134v-436h84v-136zM338 245v211l-125 -211h125z" />
    <glyph glyph-name="two" unicode="2" horiz-adv-x="567" 
d="M71 501q5 96 62 144.5t157 48.5q103 0 158 -52.5t55 -149.5q0 -51 -16.5 -89.5t-43 -67.5t-59 -51t-63.5 -41l-37.5 -24t-34 -25.5t-26.5 -28.5t-14 -31h299v-134h-452v101q0 51 17.5 89.5t45.5 68.5t63 54t69 45l47 30.5t40 31.5t27.5 33.5t10.5 38.5q0 35 -21 55
t-63 20q-33 0 -55 -17t-27 -49h-139z" />
    <glyph glyph-name="three" unicode="3" horiz-adv-x="584" 
d="M188 184q9 -29 37 -43t61 -14q50 0 77.5 19.5t27.5 57.5q0 41 -28 63t-85 22h-44v124h44q53 0 73 17.5t20 56.5q0 32 -18.5 49.5t-60.5 17.5q-29 0 -50.5 -14.5t-29.5 -40.5h-143q6 89 63 140.5t154 51.5q109 0 167.5 -53.5t58.5 -150.5q0 -41 -21 -76t-47 -55
q33 -22 59 -61.5t26 -90.5q0 -49 -17 -88.5t-48.5 -67t-76.5 -42.5t-101 -15q-50 0 -92 12t-73.5 36t-50.5 60t-22 85h140z" />
    <glyph glyph-name="one" unicode="1" horiz-adv-x="355" 
d="M290 683v-683h-142v479h-120v114q28 0 52 3.5t42 11.5t28.5 20t10.5 29v26h129z" />
    <glyph glyph-name="zero" unicode="0" horiz-adv-x="621" 
d="M196 354q0 -32 2.5 -71t14 -73.5t34 -57.5t61.5 -23t62 23t34.5 57t15 73.5t3.5 71.5t-4.5 67.5t-17 65t-35 48.5t-58.5 19q-38 0 -60 -19.5t-33.5 -49t-15 -64.5t-3.5 -67zM55 354q0 60 11.5 120.5t40.5 109t77.5 78.5t123.5 30q77 0 127 -30t79 -78t40.5 -108.5
t11.5 -121.5q0 -364 -258 -364q-129 0 -191 90t-62 274z" />
    <glyph glyph-name="slash" unicode="/" horiz-adv-x="514" 
d="M486 759l-329 -935h-129l330 935h128z" />
    <glyph glyph-name="comma" unicode="," horiz-adv-x="272" 
d="M177 -106h-105l22 106h-33v153h154v-137z" />
    <glyph glyph-name="asterisk" unicode="*" horiz-adv-x="512" 
d="M189 696h134l-14 -107l88 60l68 -111l-98 -44l50.5 -22.5t47.5 -22.5l-68 -111l-88 60l14 -107h-134l14 108l-89 -62l-67 113l96 44l-96 44l68 111l87 -60z" />
    <glyph glyph-name="parenright" unicode=")" horiz-adv-x="374" 
d="M139 749q43 -49 79.5 -103.5t62 -113.5t40 -121t14.5 -125t-14.5 -124.5t-40 -119.5t-62 -112.5t-79.5 -102.5l-89 66q33 43 60 90.5t47 97t31 101t11 103.5q0 51 -11 103.5t-31 103t-47 98.5t-60 91z" />
    <glyph glyph-name="parenleft" unicode="(" horiz-adv-x="374" 
d="M324 681q-33 -43 -60 -91t-47 -98.5t-31 -103t-11 -103.5q0 -52 11 -103.5t31 -101t47 -97t60 -90.5l-89 -66q-44 48 -80 102.5t-61.5 112.5t-40 119.5t-14.5 124.5t14.5 125t40 121t61.5 113.5t80 103.5z" />
    <glyph glyph-name="quotesingle" unicode="'" horiz-adv-x="260" 
d="M186 445h-112l-13 158v102h138v-102z" />
    <glyph glyph-name="percent" unicode="%" horiz-adv-x="833" 
d="M150 516q0 -14 1.5 -31t5.5 -32t11.5 -25t19.5 -10t19 10t11 25t5 32t1 31t-1.5 29t-5 28t-10.5 21t-19 8t-19.5 -8t-11.5 -21t-5.5 -28t-1.5 -29zM48 519q0 33 6.5 65t22.5 57.5t43 41t68 15.5q42 0 68.5 -16t42.5 -42t22 -58.5t6 -65.5q0 -195 -139 -195
q-69 0 -104.5 48.5t-35.5 149.5zM670 696l-420 -750l-105 58l418 745zM609 188q0 -14 1.5 -31t5.5 -32t11.5 -25t19.5 -10t19 10t11 25t5 32t1 31t-1.5 29t-5 28t-10.5 21t-19 8t-19.5 -8t-11.5 -21t-5.5 -28t-1.5 -29zM507 191q0 33 6.5 65t22.5 57.5t43 41t68 15.5
q42 0 68.5 -16t42.5 -42t22 -58.5t6 -65.5q0 -195 -139 -195q-69 0 -104.5 48.5t-35.5 149.5z" />
    <glyph glyph-name="dollar" unicode="$" horiz-adv-x="624" 
d="M194 208q9 -27 23.5 -48.5t34.5 -29.5v174q-87 21 -136 67t-49 134q0 84 50.5 132.5t134.5 60.5v61h130v-62q85 -14 128.5 -66.5t51.5 -129.5h-135q-9 29 -21 45.5t-24 22.5v-153q43 -11 78.5 -28t61.5 -42.5t40.5 -60t14.5 -79.5t-15 -81.5t-41 -63.5t-61.5 -43.5
t-77.5 -22.5v-62h-130v61q-41 5 -77.5 20t-64.5 41.5t-45 64t-20 88.5h149zM440 202q0 31 -18 45.5t-40 24.5v-150q21 8 39.5 29t18.5 51zM201 509q0 -22 12.5 -35t38.5 -21v123q-12 -3 -21 -10t-16 -16.5t-10.5 -20t-3.5 -20.5z" />
    <glyph glyph-name="numbersign" unicode="#" horiz-adv-x="663" 
d="M319 0l30 178h-94l-32 -178h-124l32 178h-85v109h104l19 93h-99v113h119l39 211h123l-39 -211h92l38 211h125l-39 -211h88v-113h-105l-16 -93h85v-109h-106l-29 -178h-126zM293 380l-18 -93h94l19 93h-95z" />
    <glyph glyph-name="quotedbl" unicode="&#x22;" horiz-adv-x="470" 
d="M188 444h-111l-13 148v112h137v-112zM393 444h-113l-12 148v112h138v-112z" />
    <glyph glyph-name="space" unicode=" " horiz-adv-x="280" 
 />
    <glyph glyph-name="f" unicode="f" horiz-adv-x="402" 
d="M38 491h75v69q0 65 35 104.5t104 39.5q18 0 48 -3t59 -8v-116l-57 3.5t-30 1.5q-26 0 -26 -37v-54h113v-120h-113v-371h-133v371h-75v120z" />
    <glyph glyph-name="Aring" unicode="&#xc5;" horiz-adv-x="737" 
d="M548 0l-63 165h-235q-14 -39 -31.5 -83l-31.5 -82h-148l260 667q-21 17 -33 40t-12 49q0 24 10 46t26.5 38t38 25.5t44.5 9.5q24 0 45.5 -10t37.5 -26.5t25.5 -38t9.5 -44.5q0 -27 -16 -52.5t-38 -40.5l261 -663h-150zM368 507l-74 -213h146zM340 759q0 -14 10.5 -23
t22.5 -9q15 0 23.5 9t8.5 23q0 12 -8.5 22t-23.5 10t-24 -10.5t-9 -21.5z" />
    <glyph glyph-name="aring" unicode="&#xe5;" horiz-adv-x="517" 
d="M177 671q0 23 8.5 42.5t23 34t34 23t42.5 8.5t43 -8.5t34.5 -23.5t23 -34.5t8.5 -41.5t-8.5 -41.5t-23.5 -34t-35 -23t-42 -8.5q-23 0 -42.5 8.5t-34 23t-23 34t-8.5 41.5zM255 671q0 -13 8.5 -20.5t19.5 -7.5t19.5 8t8.5 20t-8.5 19.5t-19.5 7.5t-19.5 -8t-8.5 -19z
M238 101q18 0 35 7t31 18t22.5 26t8.5 32v14l-97 -4q-34 -2 -49 -14t-15 -32q0 -47 64 -47zM66 349q0 31 15 59t42 48t63.5 32t80.5 12q57 0 95 -15t61 -42t33 -65.5t10 -84.5v-293h-115v54q-3 -6 -14 -17t-28.5 -21.5t-41 -18t-50.5 -7.5q-35 0 -67 8.5t-56 28t-38.5 49.5
t-14.5 74q0 40 16 68t42 46t60.5 26.5t71.5 10.5l104 5v11q0 62 -67 62q-25 0 -40 -5.5t-25 -24.5h-137z" />
    <glyph glyph-name="Adieresis" unicode="&#xc4;" horiz-adv-x="743" 
d="M334 760h-137v135h137v-135zM547 760h-139v135h139v-135zM551 0l-63 165h-235q-14 -39 -31.5 -83l-31.5 -82h-148l270 693h117l272 -693h-150zM371 507l-74 -213h146z" />
    <glyph glyph-name="adieresis" unicode="&#xe4;" horiz-adv-x="534" 
d="M246 564h-137v135h137v-135zM459 564h-139v135h139v-135zM247 101q18 0 35 7t31 18t22.5 26t8.5 32v14l-97 -4q-34 -2 -49 -14t-15 -32q0 -47 64 -47zM75 349q0 31 15 59t42 48t63.5 32t80.5 12q57 0 95 -15t61 -42t33 -65.5t10 -84.5v-293h-115v54q-3 -6 -14 -17
t-28.5 -21.5t-41 -18t-50.5 -7.5q-35 0 -67 8.5t-56 28t-38.5 49.5t-14.5 74q0 40 16 68t42 46t60.5 26.5t71.5 10.5l104 5v11q0 62 -67 62q-25 0 -40 -5.5t-25 -24.5h-137z" />
    <glyph glyph-name="Odieresis" unicode="&#xd6;" horiz-adv-x="668" 
d="M334 703q-86 0 -141 -29.5t-87.5 -79t-45 -113.5t-12.5 -133q0 -71 14 -135.5t47 -113.5t88 -78.5t137 -29.5t137 29.5t88 78.5t47 113.5t14 135.5q0 69 -12.5 133t-44.5 113.5t-87.5 79t-141.5 29.5zM338 128h-10q-44 0 -71 19t-42.5 50.5t-21 70.5t-5.5 80q0 43 6.5 82
t22 69t42.5 48t69 18h11q43 0 70 -18t43 -48t22 -69t6 -82q0 -41 -5.5 -80t-21.5 -70.5t-43.5 -50.5t-71.5 -19zM296 760h-137v135h137v-135zM509 760h-139v135h139v-135z" />
    <glyph glyph-name="odieresis" unicode="&#xf6;" horiz-adv-x="571" 
d="M285 500q61 0 105 -18.5t73 -51.5t43 -80t14 -104q0 -124 -58.5 -190t-176.5 -66q-117 0 -176 66t-59 190q0 57 14 104t43 80t73 51.5t105 18.5zM285 381q-27 0 -46 -11t-31 -30t-17.5 -43.5t-5.5 -51.5t5.5 -51t17.5 -42t31 -29t46 -11t46 11t31 29t17.5 42t5.5 51
t-5.5 51.5t-17.5 43.5t-31 30t-46 11zM250 564h-137v135h137v-135zM463 564h-139v135h139v-135z" />
    <glyph glyph-name="ring" unicode="&#x2da;" horiz-adv-x="356" 
d="M52 616q0 26 10 49t27 40t40 27t50 10q26 0 48.5 -10.5t39.5 -27.5t27 -40t10 -48q0 -26 -10 -48.5t-27.5 -40t-40 -27.5t-47.5 -10q-27 0 -50 10t-40 27.5t-27 40t-10 48.5zM146 616q0 -14 10 -22.5t23 -8.5t22 9.5t9 21.5q0 14 -9.5 22.5t-21.5 8.5q-14 0 -23.5 -9.5
t-9.5 -21.5z" />
    <glyph glyph-name="Oslash" unicode="&#xd8;" horiz-adv-x="677" 
d="M338 705q39 0 71 -6l19 44h134l-41 -94q31 -25 51.5 -58t32.5 -72t17 -82t5 -88q0 -71 -14 -136t-47.5 -114.5t-89 -79t-138.5 -29.5q-29 0 -55.5 3.5t-49.5 11.5l-22 -51h-133l54 120q-45 51 -63 122.5t-18 152.5q0 69 12.5 133t45 113.5t88 79.5t141.5 30zM344 122
q43 0 71 20t43.5 52t21.5 73t6 82q0 45 -6.5 84.5t-23.5 69.5l-164 -371q10 -3 19 -6.5t21 -3.5h12zM192 349q0 -28 3 -56.5t9 -53.5l72.5 165.5l73.5 166.5h-18q-42 0 -69 -18.5t-42.5 -49.5t-22 -71t-6.5 -83z" />
    <glyph glyph-name="oslash" unicode="&#xf8;" horiz-adv-x="570" 
d="M286 501q14 0 23.5 -1t15.5 -3l14 32h131l-32 -74q40 -33 61 -87.5t21 -121.5q0 -123 -58.5 -189.5t-175.5 -66.5q-29 0 -52 5l-16 -33h-130l36 79q-74 67 -74 205q0 57 14 104t43 80.5t73.5 52t105.5 18.5zM275 383q-26 -5 -43.5 -18.5t-28 -32.5t-15.5 -42t-5 -45
q0 -14 1 -29.5t7 -25.5zM284 111q26 0 45.5 11t32.5 29.5t19.5 42.5t6.5 51q0 55 -15 71z" />
    <glyph glyph-name="germandbls" unicode="&#xdf;" horiz-adv-x="639" 
d="M292 122q17 -4 30 -4.5t27 -0.5q44 0 75.5 26t31.5 85q0 51 -33.5 77.5t-90.5 26.5h-40v120h40q31 0 55 15.5t24 44.5q0 30 -17.5 49t-61.5 19q-25 0 -41.5 -7t-26 -19.5t-13.5 -30t-4 -37.5v-486h-137v332h-62v120h62v37q0 53 11.5 93.5t37.5 67.5t68.5 41t104.5 14
q54 0 94.5 -14.5t67 -40t39.5 -61t13 -77.5q0 -21 -5 -37t-13.5 -28.5t-19 -23l-21.5 -20.5q44 -29 72.5 -71.5t28.5 -103.5q0 -54 -14.5 -98t-43 -75.5t-70 -48.5t-95.5 -17q-10 0 -27.5 1.5t-45.5 6.5v125z" />
    <glyph glyph-name="Udieresis" unicode="&#xdc;" horiz-adv-x="652" 
d="M53 693h138v-394q0 -34 5.5 -65.5t20 -55.5t41 -38.5t68.5 -14.5q40 0 66 14t41.5 37.5t21.5 55t6 67.5v394h138v-404q0 -69 -15 -124.5t-48 -94t-84.5 -59.5t-123.5 -21q-82 0 -135.5 23.5t-84.5 64t-43 95t-12 116.5v404zM289 760h-137v135h137v-135zM502 760h-139v135
h139v-135z" />
    <glyph glyph-name="udieresis" unicode="&#xfc;" horiz-adv-x="572" 
d="M241 564h-137v135h137v-135zM454 564h-139v135h139v-135zM395 0v49q-10 -17 -25 -28t-33 -18t-37.5 -10t-37.5 -3q-46 0 -84 12.5t-65.5 37t-42.5 61t-15 84.5v306h132v-308q0 -18 8.5 -32t22.5 -23.5t31.5 -14.5t36.5 -5q39 0 68 22.5t29 63.5v297h132v-491h-120z" />
    <glyph glyph-name="AE" unicode="&#xc6;" horiz-adv-x="921" 
d="M852 559h-298v-146h280v-132h-280v-147h306v-134h-447v165h-150l-74 -165h-149l319 693h493v-134zM413 295v229l-95 -229h95z" />
    <glyph glyph-name="ae" unicode="&#xe6;" horiz-adv-x="904" 
d="M849 163q-11 -49 -32 -82t-50 -53t-64.5 -28.5t-75.5 -8.5q-75 0 -124 26.5t-76 74.5q-21 -37 -46.5 -57.5t-50 -30.5t-46.5 -12t-36 -2q-35 0 -69.5 8.5t-62 28t-44.5 49.5t-17 74q0 40 16 68t42 46t60.5 26.5t71.5 10.5l104 5v11q0 32 -17.5 51t-49.5 19
q-25 0 -40 -9.5t-25 -28.5h-137q0 31 15 59t42 48t63.5 32t80.5 12q65 0 104 -19.5t60 -54.5q31 37 76.5 55t103.5 18q51 0 92 -15.5t70.5 -47t45.5 -79t16 -110.5v-35h-321q0 -45 27 -74.5t72 -29.5q25 0 50 13t33 42h139zM252 103q18 0 35 7t31 18.5t22.5 26.5t8.5 32v15
l-97 -4q-34 -2 -52.5 -15t-18.5 -33q0 -21 21.5 -34t49.5 -13zM709 306q0 13 -5.5 27.5t-16 26.5t-26 19.5t-36.5 7.5q-23 0 -39.5 -7.5t-28 -19t-17.5 -26t-9 -28.5h178z" />
    <glyph glyph-name="Eacute" unicode="&#xc9;" horiz-adv-x="544" 
d="M225 737l-73 89l167 151l86 -108zM492 559h-302v-146h284v-132h-284v-147h310v-134h-450v693h442v-134z" />
    <glyph glyph-name="eacute" unicode="&#xe9;" horiz-adv-x="542" 
d="M251 537l-91 73l127 180l107 -88zM359 306q0 13 -5.5 27.5t-16 26.5t-26 19.5t-36.5 7.5q-23 0 -39.5 -7.5t-28 -19t-17.5 -26t-9 -28.5h178zM499 163q-11 -49 -32 -82t-50 -53t-64.5 -28.5t-75.5 -8.5q-62 0 -106.5 19t-73.5 53t-43 80.5t-14 101.5q0 65 17 112.5
t47.5 79t74 47t96.5 15.5q51 0 92 -15.5t70.5 -47t45.5 -79t16 -110.5v-35h-321q0 -45 27 -74.5t72 -29.5q25 0 50 13t33 42h139z" />
    <glyph glyph-name="trademark" unicode="&#x2122;" horiz-adv-x="676" 
d="M292 693v-81h-72v-202h-93v202h-73v81h238zM470 554l52 139h92v-283h-80v129l-44 -129h-38l-46 130v-130h-79v283h90z" />
    <glyph glyph-name="ampersand" unicode="&#x26;" horiz-adv-x="657" 
d="M552 321q-1 -49 -9.5 -98.5t-28.5 -87.5q13 -11 22.5 -18t18.5 -7q4 0 13.5 1.5t19.5 3.5q11 2 24 5v-114q-24 -4 -38.5 -5t-26.5 -1q-41 0 -65.5 14t-44.5 33q-32 -23 -66.5 -35t-76.5 -12q-50 0 -94 12.5t-77 38.5t-52.5 65t-19.5 93q0 68 30.5 110t77.5 69
q-20 29 -29 54t-9 65q0 81 51 124t137 43q34 0 64.5 -10t53 -29.5t35.5 -48.5t13 -68q0 -33 -7 -56.5t-22 -42.5t-38 -36t-54 -35l82 -114q5 18 6 44t1 43h109zM185 205q0 -21 10 -37t25.5 -27.5t35.5 -17t41 -5.5q33 0 64 20l-124 156q-23 -15 -37.5 -35.5t-14.5 -53.5z
M359 520q0 40 -52 40q-24 0 -40.5 -11t-16.5 -33q0 -18 7 -31.5t23 -33.5l27.5 16.5t25.5 17.5t18.5 18t7.5 17z" />
    <glyph glyph-name="OE" unicode="&#x152;" horiz-adv-x="993" 
d="M340 703q48 0 87.5 -15t60.5 -38v43h439v-133h-299v-147h280v-132h-280v-147h307v-134h-447v43q-23 -24 -62.5 -38t-85.5 -14q-81 0 -136 29.5t-88 78.5t-47 113.5t-14 135.5q0 69 12.5 133t44.5 113.5t87 79t141 29.5zM345 128q44 0 71.5 19t43.5 50.5t21.5 70.5t5.5 80
q0 42 -6.5 81.5t-22 69.5t-43 48t-69.5 18h-11q-42 0 -69.5 -18t-43 -48t-22 -69.5t-6.5 -81.5q0 -41 5.5 -80t21.5 -70.5t43 -50.5t71 -19h10z" />
    <glyph glyph-name="oe" unicode="&#x153;" horiz-adv-x="937" 
d="M291 500q64 0 109.5 -25.5t74.5 -62.5q32 39 78 63t105 24q51 0 92 -15.5t70.5 -47t45.5 -79t16 -110.5v-35h-321q0 -45 27 -74.5t72 -29.5q25 0 50 13t33 42h139q-11 -49 -32 -82t-50 -53t-64.5 -28.5t-75.5 -8.5q-64 0 -109.5 25t-74.5 61q-29 -38 -75.5 -62.5
t-109.5 -24.5q-117 0 -176 66t-59 190q0 57 14 104t43 80t73 51.5t105 18.5zM291 381q-27 0 -46 -11t-31 -30t-17.5 -43.5t-5.5 -51.5t5.5 -51t17.5 -42t31 -29t46 -11t46 11t31 29t17.5 42t5.5 51t-5.5 51.5t-17.5 43.5t-31 30t-46 11zM742 306q0 13 -5.5 27.5t-16 26.5
t-26 19.5t-36.5 7.5q-23 0 -39.5 -7.5t-28 -19t-17.5 -26t-9 -28.5h178z" />
    <glyph glyph-name="copyright" unicode="&#xa9;" horiz-adv-x="787" 
d="M737 346q-3 -78 -27 -143t-68 -112t-106 -73.5t-140 -26.5t-142 28t-109 76.5t-70 113t-25 137.5q0 79 25.5 145t71.5 113t109.5 73t139.5 26q80 0 143.5 -27t107.5 -75t67 -113.5t23 -141.5zM623 346q0 51 -16 97t-45 80t-70.5 54t-92.5 20q-54 0 -97.5 -20t-74 -54.5
t-47.5 -80t-17 -96.5q0 -53 17.5 -98.5t48 -79.5t73.5 -53t94 -19q52 0 94.5 21t71.5 55.5t45 80t16 93.5zM564 318q-12 -77 -55 -115.5t-110 -38.5q-86 0 -129 48.5t-43 136.5q0 39 10.5 72t31.5 57t53.5 37.5t76.5 13.5q64 0 107 -35.5t54 -101.5h-115q-7 18 -17.5 23.5
t-28.5 5.5q-30 0 -41.5 -21.5t-11.5 -50.5t11.5 -50.5t41.5 -21.5q25 0 36.5 12t14.5 29h114z" />
    <glyph glyph-name="Ntilde" unicode="&#xd1;" horiz-adv-x="655" 
d="M143 762q6 40 19.5 66.5t31.5 42.5t39 23t42 7q16 0 29.5 -5.5t26.5 -12.5t26 -12.5t27 -5.5q9 0 19 5t20 22h100q-5 -37 -18 -63.5t-31 -44t-39 -25.5t-43 -8q-16 0 -31 6t-28.5 13.5t-26 13.5t-22.5 6t-20 -5t-20 -23h-101zM599 0h-146l-258 447v-447h-139v693h146
l257 -444v444h140v-693z" />
    <glyph glyph-name="Lslash" unicode="&#x141;" horiz-adv-x="589" 
d="M128 693h137v-232l104 54v-141l-104 -55v-187h291v-132h-428v246l-79 -40v142l79 39v306z" />
    <glyph glyph-name="lslash" unicode="&#x142;" horiz-adv-x="390" 
d="M257 693v-283l96 50v-140l-96 -50v-270h-132v202l-86 -46v142l86 44v351h132z" />
    <glyph glyph-name="asciicircum" unicode="^" horiz-adv-x="515" 
d="M40 460l166 291h102l167 -291h-148l-70 130l-69 -130h-148z" />
    <glyph glyph-name="exclamdown" unicode="&#xa1;" horiz-adv-x="268" 
d="M190 269l16 -296v-175h-144v175l17 296h111zM62 491h145v-149h-145v149z" />
    <glyph glyph-name="questiondown" unicode="&#xbf;" horiz-adv-x="500" 
d="M463 -17q-3 -51 -21 -88t-46 -61t-64.5 -36t-78.5 -12q-47 0 -85.5 13.5t-66.5 39.5t-43.5 63.5t-15.5 84.5q0 54 24.5 99t69.5 87q25 22 34.5 38.5t9.5 42.5v14h136v-15q0 -36 -7.5 -62.5t-19.5 -46.5t-26.5 -35.5t-28.5 -28.5q-22 -22 -37.5 -42.5t-15.5 -50.5
q0 -34 19 -52.5t53 -18.5q28 0 46 18.5t21 48.5h143zM168 491h154v-153h-154v153z" />
    <glyph glyph-name="Agrave" unicode="&#xc0;" horiz-adv-x="733" 
d="M475 825l-71 -87l-175 136l94 103zM548 0l-63 165h-235q-14 -39 -31.5 -83l-31.5 -82h-148l270 693h117l272 -693h-150zM368 507l-74 -213h146z" />
    <glyph glyph-name="Aacute" unicode="&#xc1;" horiz-adv-x="733" 
d="M333 735l-74 88l155 151l92 -103zM544 0l-63 165h-235q-14 -39 -31.5 -83l-31.5 -82h-148l270 693h117l272 -693h-150zM364 507l-74 -213h146z" />
    <glyph glyph-name="Acircumflex" unicode="&#xc2;" horiz-adv-x="739" 
d="M549 0l-63 165h-235q-14 -39 -31.5 -83l-31.5 -82h-148l270 693h117l272 -693h-150zM369 507l-74 -213h146zM468 735l-98 88l-96 -88l-70 76l124 113h83l124 -113z" />
    <glyph glyph-name="Atilde" unicode="&#xc3;" horiz-adv-x="745" 
d="M191 762q6 40 19.5 66.5t31.5 42.5t39 23t42 7q16 0 29.5 -5.5t26.5 -12.5t26 -12.5t27 -5.5q9 0 19 5t20 22h100q-5 -37 -18 -63.5t-31 -44t-39 -25.5t-43 -8q-16 0 -31 6t-28.5 13.5t-26 13.5t-22.5 6t-20 -5t-20 -23h-101zM551 0l-63 165h-235q-14 -39 -31.5 -83
l-31.5 -82h-148l270 693h117l272 -693h-150zM371 507l-74 -213h146z" />
    <glyph glyph-name="Ccedilla" unicode="&#xc7;" horiz-adv-x="633" 
d="M590 222q-11 -96 -62 -155t-148 -72l-13 -36q41 0 60.5 -24t19.5 -55q0 -44 -23.5 -67.5t-74.5 -23.5q-29 0 -49 13t-31 35l52 33q3 -5 9 -12.5t19 -7.5q17 0 23 9t6 21q0 16 -10.5 22t-20.5 6q-17 0 -33 -18l-53 36l26 67q-69 7 -116 39t-75.5 80t-41 109t-12.5 127
q0 69 12.5 133t45 113.5t87.5 79t140 29.5q117 0 182.5 -60t81.5 -161h-148q-11 36 -38.5 59.5t-70.5 23.5h-12q-42 0 -68.5 -18t-42.5 -48t-22 -69t-6 -82q0 -41 5.5 -80t21 -70.5t42.5 -50.5t70 -19h11q47 0 74 28t37 66h146z" />
    <glyph glyph-name="Ecircumflex" unicode="&#xca;" 
d="M378 733l-98 88l-96 -88l-70 76l124 113h83l124 -113zM497 559h-302v-146h284v-132h-284v-147h310v-134h-450v693h442v-134z" />
    <glyph glyph-name="Edieresis" unicode="&#xcb;" horiz-adv-x="560" 
d="M500 559h-302v-146h284v-132h-284v-147h310v-134h-450v693h442v-134zM249 760h-137v135h137v-135zM462 760h-139v135h139v-135z" />
    <glyph glyph-name="Igrave" unicode="&#xcc;" horiz-adv-x="322" 
d="M281 825l-72 -90l-172 135l94 103zM242 693v-693h-140v693h140z" />
    <glyph glyph-name="Iacute" unicode="&#xcd;" horiz-adv-x="326" 
d="M117 734l-72 89l155 150l91 -103zM214 693v-693h-140v693h140z" />
    <glyph glyph-name="Icircumflex" unicode="&#xce;" horiz-adv-x="405" 
d="M266 693v-693h-140v693h140zM302 735l-98 88l-96 -88l-70 76l124 113h83l124 -113z" />
    <glyph glyph-name="Idieresis" unicode="&#xcf;" horiz-adv-x="430" 
d="M281 693v-693h-140v693h140zM178 760h-137v135h137v-135zM391 760h-139v135h139v-135z" />
    <glyph glyph-name="Eth" unicode="&#xd0;" horiz-adv-x="679" 
d="M109 693h215q156 0 229.5 -87.5t73.5 -259.5q0 -77 -15 -140.5t-49.5 -109.5t-91.5 -71t-141 -25h-221v289h-58v121h58v283zM249 560v-150h117v-121h-117v-156h81q46 0 76 14.5t48 42.5t25 67t7 89q0 109 -38.5 161.5t-123.5 52.5h-75z" />
    <glyph glyph-name="Ograve" unicode="&#xd2;" horiz-adv-x="659" 
d="M433 825l-74 -86l-172 135l91 103zM331 703q-86 0 -141 -29.5t-87.5 -79t-45 -113.5t-12.5 -133q0 -71 14 -135.5t47 -113.5t88 -78.5t137 -29.5t137 29.5t88 78.5t47 113.5t14 135.5q0 69 -12.5 133t-44.5 113.5t-87.5 79t-141.5 29.5zM335 128h-10q-44 0 -71 19
t-42.5 50.5t-21 70.5t-5.5 80q0 43 6.5 82t22 69t42.5 48t69 18h11q43 0 70 -18t43 -48t22 -69t6 -82q0 -41 -5.5 -80t-21.5 -70.5t-43.5 -50.5t-71.5 -19z" />
    <glyph glyph-name="Oacute" unicode="&#xd3;" horiz-adv-x="658" 
d="M286 737l-72 87l155 152l93 -103zM328 703q-86 0 -141 -29.5t-87.5 -79t-45 -113.5t-12.5 -133q0 -71 14 -135.5t47 -113.5t88 -78.5t137 -29.5t137 29.5t88 78.5t47 113.5t14 135.5q0 69 -12.5 133t-44.5 113.5t-87.5 79t-141.5 29.5zM332 128h-10q-44 0 -71 19
t-42.5 50.5t-21 70.5t-5.5 80q0 43 6.5 82t22 69t42.5 48t69 18h11q43 0 70 -18t43 -48t22 -69t6 -82q0 -41 -5.5 -80t-21.5 -70.5t-43.5 -50.5t-71.5 -19z" />
    <glyph glyph-name="Ocircumflex" unicode="&#xd4;" horiz-adv-x="664" 
d="M332 703q-86 0 -141 -29.5t-87.5 -79t-45 -113.5t-12.5 -133q0 -71 14 -135.5t47 -113.5t88 -78.5t137 -29.5t137 29.5t88 78.5t47 113.5t14 135.5q0 69 -12.5 133t-44.5 113.5t-87.5 79t-141.5 29.5zM336 128h-10q-44 0 -71 19t-42.5 50.5t-21 70.5t-5.5 80q0 43 6.5 82
t22 69t42.5 48t69 18h11q43 0 70 -18t43 -48t22 -69t6 -82q0 -41 -5.5 -80t-21.5 -70.5t-43.5 -50.5t-71.5 -19zM429 735l-98 88l-96 -88l-70 76l124 113h83l124 -113z" />
    <glyph glyph-name="Otilde" unicode="&#xd5;" horiz-adv-x="669" 
d="M334 703q-86 0 -141 -29.5t-87.5 -79t-45 -113.5t-12.5 -133q0 -71 14 -135.5t47 -113.5t88 -78.5t137 -29.5t137 29.5t88 78.5t47 113.5t14 135.5q0 69 -12.5 133t-44.5 113.5t-87.5 79t-141.5 29.5zM338 128h-10q-44 0 -71 19t-42.5 50.5t-21 70.5t-5.5 80q0 43 6.5 82
t22 69t42.5 48t69 18h11q43 0 70 -18t43 -48t22 -69t6 -82q0 -41 -5.5 -80t-21.5 -70.5t-43.5 -50.5t-71.5 -19zM151 762q6 40 19.5 66.5t31.5 42.5t39 23t42 7q16 0 29.5 -5.5t26.5 -12.5t26 -12.5t27 -5.5q9 0 19 5t20 22h100q-5 -37 -18 -63.5t-31 -44t-39 -25.5t-43 -8
q-16 0 -31 6t-28.5 13.5t-26 13.5t-22.5 6t-20 -5t-20 -23h-101z" />
    <glyph glyph-name="multiply" unicode="&#xd7;" horiz-adv-x="525" 
d="M475 415l-122 -121l123 -122l-95 -89l-120 120l-122 -120l-90 90l121 121l-121 121l92 92l122 -122l119 122z" />
    <glyph glyph-name="Ugrave" unicode="&#xd9;" horiz-adv-x="641" 
d="M429 825l-70 -89l-174 136l92 103zM49 693h138v-394q0 -34 5.5 -65.5t20 -55.5t41 -38.5t68.5 -14.5q40 0 66 14t41.5 37.5t21.5 55t6 67.5v394h138v-404q0 -69 -15 -124.5t-48 -94t-84.5 -59.5t-123.5 -21q-82 0 -135.5 23.5t-84.5 64t-43 95t-12 116.5v404z" />
    <glyph glyph-name="Uacute" unicode="&#xda;" horiz-adv-x="640" 
d="M278 736l-70 89l153 150l93 -103zM46 693h138v-394q0 -34 5.5 -65.5t20 -55.5t41 -38.5t68.5 -14.5q40 0 66 14t41.5 37.5t21.5 55t6 67.5v394h138v-404q0 -69 -15 -124.5t-48 -94t-84.5 -59.5t-123.5 -21q-82 0 -135.5 23.5t-84.5 64t-43 95t-12 116.5v404z" />
    <glyph glyph-name="Ucircumflex" unicode="&#xdb;" horiz-adv-x="648" 
d="M51 693h138v-394q0 -34 5.5 -65.5t20 -55.5t41 -38.5t68.5 -14.5q40 0 66 14t41.5 37.5t21.5 55t6 67.5v394h138v-404q0 -69 -15 -124.5t-48 -94t-84.5 -59.5t-123.5 -21q-82 0 -135.5 23.5t-84.5 64t-43 95t-12 116.5v404zM422 735l-98 88l-96 -88l-70 76l124 113h83
l124 -113z" />
    <glyph glyph-name="Yacute" unicode="&#xdd;" horiz-adv-x="700" 
d="M311 736l-72 89l155 149l90 -103zM276 268l-246 425h161l157 -299l162 299h159l-253 -424v-269h-140v268z" />
    <glyph glyph-name="Thorn" unicode="&#xde;" horiz-adv-x="558" 
d="M202 152v-152h-140v693h140v-118h77q54 0 100 -12t79.5 -37.5t52.5 -66t19 -96.5q0 -60 -20 -100t-54.5 -65t-80 -35.5t-96.5 -10.5h-77zM202 286h98q46 0 68.5 17.5t22.5 59.5q0 40 -27.5 59.5t-63.5 19.5h-98v-156z" />
    <glyph glyph-name="agrave" unicode="&#xe0;" horiz-adv-x="511" 
d="M391 609l-89 -73l-145 165l109 88zM237 101q18 0 35 7t31 18t22.5 26t8.5 32v14l-97 -4q-34 -2 -49 -14t-15 -32q0 -47 64 -47zM65 349q0 31 15 59t42 48t63.5 32t80.5 12q57 0 95 -15t61 -42t33 -65.5t10 -84.5v-293h-115v54q-3 -6 -14 -17t-28.5 -21.5t-41 -18
t-50.5 -7.5q-35 0 -67 8.5t-56 28t-38.5 49.5t-14.5 74q0 40 16 68t42 46t60.5 26.5t71.5 10.5l104 5v11q0 62 -67 62q-25 0 -40 -5.5t-25 -24.5h-137z" />
    <glyph glyph-name="aacute" unicode="&#xe1;" horiz-adv-x="512" 
d="M265 547l-91 73l127 180l107 -88zM233 101q18 0 35 7t31 18t22.5 26t8.5 32v14l-97 -4q-34 -2 -49 -14t-15 -32q0 -47 64 -47zM61 349q0 31 15 59t42 48t63.5 32t80.5 12q57 0 95 -15t61 -42t33 -65.5t10 -84.5v-293h-115v54q-3 -6 -14 -17t-28.5 -21.5t-41 -18
t-50.5 -7.5q-35 0 -67 8.5t-56 28t-38.5 49.5t-14.5 74q0 40 16 68t42 46t60.5 26.5t71.5 10.5l104 5v11q0 62 -67 62q-25 0 -40 -5.5t-25 -24.5h-137z" />
    <glyph glyph-name="acircumflex" unicode="&#xe2;" horiz-adv-x="519" 
d="M325 693l83 -103l-71 -56l-56 68l-56 -68l-73 57l84 102h89zM239 101q18 0 35 7t31 18t22.5 26t8.5 32v14l-97 -4q-34 -2 -49 -14t-15 -32q0 -47 64 -47zM67 349q0 31 15 59t42 48t63.5 32t80.5 12q57 0 95 -15t61 -42t33 -65.5t10 -84.5v-293h-115v54q-3 -6 -14 -17
t-28.5 -21.5t-41 -18t-50.5 -7.5q-35 0 -67 8.5t-56 28t-38.5 49.5t-14.5 74q0 40 16 68t42 46t60.5 26.5t71.5 10.5l104 5v11q0 62 -67 62q-25 0 -40 -5.5t-25 -24.5h-137z" />
    <glyph glyph-name="atilde" unicode="&#xe3;" horiz-adv-x="532" 
d="M94 574q6 40 19.5 66.5t31.5 42.5t39 23t42 7q16 0 29.5 -5.5t26.5 -12.5t26 -12.5t27 -5.5q9 0 19 5t20 22h100q-5 -37 -18 -63.5t-31 -44t-39 -25.5t-43 -8q-16 0 -31 6t-28.5 13.5t-26 13.5t-22.5 6t-20 -5t-20 -23h-101zM245 101q18 0 35 7t31 18t22.5 26t8.5 32v14
l-97 -4q-34 -2 -49 -14t-15 -32q0 -47 64 -47zM73 349q0 31 15 59t42 48t63.5 32t80.5 12q57 0 95 -15t61 -42t33 -65.5t10 -84.5v-293h-115v54q-3 -6 -14 -17t-28.5 -21.5t-41 -18t-50.5 -7.5q-35 0 -67 8.5t-56 28t-38.5 49.5t-14.5 74q0 40 16 68t42 46t60.5 26.5
t71.5 10.5l104 5v11q0 62 -67 62q-25 0 -40 -5.5t-25 -24.5h-137z" />
    <glyph glyph-name="ccedilla" unicode="&#xe7;" horiz-adv-x="539" 
d="M198 -74l26 69q-91 14 -137 78t-46 173q0 57 14 103.5t42.5 79.5t72.5 51.5t105 18.5q39 0 74.5 -10t65 -31t50 -52.5t29.5 -74.5h-142q-7 25 -30 40.5t-47 15.5q-27 0 -46 -12t-31 -32t-17.5 -45.5t-5.5 -52.5t5.5 -51.5t17.5 -43.5t31 -30.5t46 -11.5q32 0 54 19t30 52
h138q-14 -87 -60.5 -131.5t-119.5 -53.5l-13 -35q41 0 60.5 -24t19.5 -55q0 -44 -23.5 -67.5t-74.5 -23.5q-29 0 -49 13t-31 35l52 33q3 -5 9 -12.5t19 -7.5q17 0 23 9t6 21q0 16 -10.5 22t-20.5 6q-17 0 -33 -18z" />
    <glyph glyph-name="egrave" unicode="&#xe8;" horiz-adv-x="541" 
d="M380 609l-89 -73l-145 165l109 88zM362 306q0 13 -5.5 27.5t-16 26.5t-26 19.5t-36.5 7.5q-23 0 -39.5 -7.5t-28 -19t-17.5 -26t-9 -28.5h178zM502 163q-11 -49 -32 -82t-50 -53t-64.5 -28.5t-75.5 -8.5q-62 0 -106.5 19t-73.5 53t-43 80.5t-14 101.5q0 65 17 112.5
t47.5 79t74 47t96.5 15.5q51 0 92 -15.5t70.5 -47t45.5 -79t16 -110.5v-35h-321q0 -45 27 -74.5t72 -29.5q25 0 50 13t33 42h139z" />
    <glyph glyph-name="ecircumflex" unicode="&#xea;" horiz-adv-x="548" 
d="M363 306q0 13 -5.5 27.5t-16 26.5t-26 19.5t-36.5 7.5q-23 0 -39.5 -7.5t-28 -19t-17.5 -26t-9 -28.5h178zM503 163q-11 -49 -32 -82t-50 -53t-64.5 -28.5t-75.5 -8.5q-62 0 -106.5 19t-73.5 53t-43 80.5t-14 101.5q0 65 17 112.5t47.5 79t74 47t96.5 15.5q51 0 92 -15.5
t70.5 -47t45.5 -79t16 -110.5v-35h-321q0 -45 27 -74.5t72 -29.5q25 0 50 13t33 42h139zM328 693l83 -103l-71 -56l-56 68l-56 -68l-73 57l84 102h89z" />
    <glyph glyph-name="edieresis" unicode="&#xeb;" horiz-adv-x="560" 
d="M369 306q0 13 -5.5 27.5t-16 26.5t-26 19.5t-36.5 7.5q-23 0 -39.5 -7.5t-28 -19t-17.5 -26t-9 -28.5h178zM509 163q-11 -49 -32 -82t-50 -53t-64.5 -28.5t-75.5 -8.5q-62 0 -106.5 19t-73.5 53t-43 80.5t-14 101.5q0 65 17 112.5t47.5 79t74 47t96.5 15.5q51 0 92 -15.5
t70.5 -47t45.5 -79t16 -110.5v-35h-321q0 -45 27 -74.5t72 -29.5q25 0 50 13t33 42h139zM249 564h-137v135h137v-135zM462 564h-139v135h139v-135z" />
    <glyph glyph-name="igrave" unicode="&#xec;" horiz-adv-x="311" 
d="M274 609l-90 -73l-145 165l109 88zM94 0v491h132v-491h-132z" />
    <glyph glyph-name="iacute" unicode="&#xed;" horiz-adv-x="311" 
d="M131 536l-91 73l127 180l107 -88zM74 0v491h132v-491h-132z" />
    <glyph glyph-name="icircumflex" unicode="&#xee;" horiz-adv-x="335" 
d="M103 0v491h132v-491h-132zM212 693l83 -103l-71 -56l-56 68l-56 -68l-73 57l84 102h89z" />
    <glyph glyph-name="idieresis" unicode="&#xef;" horiz-adv-x="436" 
d="M180 564h-137v135h137v-135zM393 564h-139v135h139v-135zM151 0v491h132v-491h-132z" />
    <glyph glyph-name="eth" unicode="&#xf0;" horiz-adv-x="545" 
d="M150 540v89h64l-40 74h131l38 -74h96v-89h-39q30 -51 48.5 -97t29.5 -83.5t15 -66t4 -44.5q0 -57 -13 -104.5t-41 -82t-70.5 -54t-101.5 -19.5q-62 0 -105 20.5t-69.5 56t-38.5 83t-12 100.5q0 57 13 104.5t41 82.5t70 54.5t101 19.5l17 -1l-19 31h-119zM182 249
q0 -26 5 -51t15.5 -45t27.5 -32.5t41 -12.5q25 0 42.5 14t28 35t15 46t4.5 46q0 25 -5 49.5t-15.5 44t-28 32t-41.5 12.5q-26 0 -43 -13t-27.5 -33.5t-14.5 -45t-4 -46.5z" />
    <glyph glyph-name="ntilde" unicode="&#xf1;" horiz-adv-x="571" 
d="M182 491v-32q22 28 54.5 35t61.5 7q48 0 88 -12.5t69 -37t45 -61t16 -84.5v-306h-132v304q0 18 -8.5 32t-22 23.5t-31 14.5t-36.5 5q-39 0 -68.5 -22.5t-29.5 -63.5v-293h-132v491h126zM97 574q6 40 19.5 66.5t31.5 42.5t39 23t42 7q16 0 29.5 -5.5t26.5 -12.5t26 -12.5
t27 -5.5q9 0 19 5t20 22h100q-5 -37 -18 -63.5t-31 -44t-39 -25.5t-43 -8q-16 0 -31 6t-28.5 13.5t-26 13.5t-22.5 6t-20 -5t-20 -23h-101z" />
    <glyph glyph-name="ograve" unicode="&#xf2;" horiz-adv-x="554" 
d="M393 609l-90 -73l-145 165l110 88zM278 500q61 0 105 -18.5t73 -51.5t43 -80t14 -104q0 -124 -58.5 -190t-176.5 -66q-117 0 -176 66t-59 190q0 57 14 104t43 80t73 51.5t105 18.5zM278 381q-27 0 -46 -11t-31 -30t-17.5 -43.5t-5.5 -51.5t5.5 -51t17.5 -42t31 -29
t46 -11t46 11t31 29t17.5 42t5.5 51t-5.5 51.5t-17.5 43.5t-31 30t-46 11z" />
    <glyph glyph-name="oacute" unicode="&#xf3;" 
d="M255 535l-89 73l125 180l107 -88zM275 500q61 0 105 -18.5t73 -51.5t43 -80t14 -104q0 -124 -58.5 -190t-176.5 -66q-117 0 -176 66t-59 190q0 57 14 104t43 80t73 51.5t105 18.5zM275 381q-27 0 -46 -11t-31 -30t-17.5 -43.5t-5.5 -51.5t5.5 -51t17.5 -42t31 -29t46 -11
t46 11t31 29t17.5 42t5.5 51t-5.5 51.5t-17.5 43.5t-31 30t-46 11z" />
    <glyph glyph-name="ocircumflex" unicode="&#xf4;" horiz-adv-x="560" 
d="M280 500q61 0 105 -18.5t73 -51.5t43 -80t14 -104q0 -124 -58.5 -190t-176.5 -66q-117 0 -176 66t-59 190q0 57 14 104t43 80t73 51.5t105 18.5zM280 381q-27 0 -46 -11t-31 -30t-17.5 -43.5t-5.5 -51.5t5.5 -51t17.5 -42t31 -29t46 -11t46 11t31 29t17.5 42t5.5 51
t-5.5 51.5t-17.5 43.5t-31 30t-46 11zM325 693l83 -103l-71 -56l-56 68l-56 -68l-73 57l84 102h89z" />
    <glyph glyph-name="otilde" unicode="&#xf5;" horiz-adv-x="570" 
d="M285 500q61 0 105 -18.5t73 -51.5t43 -80t14 -104q0 -124 -58.5 -190t-176.5 -66q-117 0 -176 66t-59 190q0 57 14 104t43 80t73 51.5t105 18.5zM285 381q-27 0 -46 -11t-31 -30t-17.5 -43.5t-5.5 -51.5t5.5 -51t17.5 -42t31 -29t46 -11t46 11t31 29t17.5 42t5.5 51
t-5.5 51.5t-17.5 43.5t-31 30t-46 11zM93 574q6 40 19.5 66.5t31.5 42.5t39 23t42 7q16 0 29.5 -5.5t26.5 -12.5t26 -12.5t27 -5.5q9 0 19 5t20 22h100q-5 -37 -18 -63.5t-31 -44t-39 -25.5t-43 -8q-16 0 -31 6t-28.5 13.5t-26 13.5t-22.5 6t-20 -5t-20 -23h-101z" />
    <glyph glyph-name="ugrave" unicode="&#xf9;" 
d="M389 609l-87 -72l-145 164l109 85zM387 0v49q-10 -17 -25 -28t-33 -18t-37.5 -10t-37.5 -3q-46 0 -84 12.5t-65.5 37t-42.5 61t-15 84.5v306h132v-308q0 -18 8.5 -32t22.5 -23.5t31.5 -14.5t36.5 -5q39 0 68 22.5t29 63.5v297h132v-491h-120z" />
    <glyph glyph-name="uacute" unicode="&#xfa;" 
d="M253 537l-86 72l120 176l110 -85zM384 0v49q-10 -17 -25 -28t-33 -18t-37.5 -10t-37.5 -3q-46 0 -84 12.5t-65.5 37t-42.5 61t-15 84.5v306h132v-308q0 -18 8.5 -32t22.5 -23.5t31.5 -14.5t36.5 -5q39 0 68 22.5t29 63.5v297h132v-491h-120z" />
    <glyph glyph-name="ucircumflex" unicode="&#xfb;" horiz-adv-x="561" 
d="M320 693l83 -103l-71 -56l-56 68l-56 -68l-73 57l84 102h89zM390 0v49q-10 -17 -25 -28t-33 -18t-37.5 -10t-37.5 -3q-46 0 -84 12.5t-65.5 37t-42.5 61t-15 84.5v306h132v-308q0 -18 8.5 -32t22.5 -23.5t31.5 -14.5t36.5 -5q39 0 68 22.5t29 63.5v297h132v-491h-120z
" />
    <glyph glyph-name="yacute" unicode="&#xfd;" horiz-adv-x="577" 
d="M274 537l-89 72l123 177l109 -86zM38 491h141l112 -319l114 319h142l-239 -569q-10 -23 -22 -44t-28 -36.5t-37 -25t-48 -9.5q-22 0 -43.5 5t-47.5 14v120q16 -4 30 -8q12 -3 24 -5t19 -2q10 0 19 9t17 23.5t15 32.5t13 36z" />
    <glyph glyph-name="thorn" unicode="&#xfe;" horiz-adv-x="548" 
d="M192 -200h-130v901h131v-227q21 15 44.5 20t49.5 5q61 0 105 -18.5t72.5 -52t42.5 -80t14 -103.5q0 -123 -59.5 -189t-171.5 -66q-39 0 -61.5 8.5t-36.5 20.5v-219zM287 379q-24 0 -41.5 -10.5t-29.5 -27.5t-18 -40.5t-7 -48.5v-20q0 -22 6 -43.5t18 -38.5t30 -27.5
t42 -10.5q27 0 46 10.5t31 28.5t17.5 42t5.5 51t-5.5 51.5t-17.5 43t-31 29.5t-46 11z" />
    <glyph glyph-name="ydieresis" unicode="&#xff;" horiz-adv-x="588" 
d="M262 564h-137v135h137v-135zM475 564h-139v135h139v-135zM46 491h141l112 -319l114 319h142l-239 -569q-10 -23 -22 -44t-28 -36.5t-37 -25t-48 -9.5q-22 0 -43.5 5t-47.5 14v120q16 -4 30 -8q12 -3 24 -5t19 -2q10 0 19 9t17 23.5t15 32.5t13 36z" />
    <glyph glyph-name="degree" unicode="&#xb0;" horiz-adv-x="413" 
d="M149 543q0 -26 16.5 -43t41.5 -17q24 0 40.5 17t16.5 43t-16.5 43t-40.5 17q-25 0 -41.5 -17t-16.5 -43zM50 543q0 36 12.5 65.5t33.5 50.5t49.5 32.5t61.5 11.5q32 0 60.5 -12t49.5 -33.5t33.5 -51t12.5 -63.5q0 -35 -12.5 -64t-33.5 -50.5t-49.5 -33.5t-60.5 -12
q-33 0 -61.5 12t-49.5 33.5t-33.5 50.5t-12.5 64z" />
    <glyph glyph-name="dieresis" unicode="&#xa8;" horiz-adv-x="453" 
d="M199 521h-137v145h137v-145zM391 521h-139v145h139v-145z" />
    <glyph glyph-name="ordfeminine" unicode="&#xaa;" horiz-adv-x="339" 
d="M204 478h-27q-8 0 -17.5 -1t-18 -4t-14 -7.5t-5.5 -11.5q0 -8 7 -16t24 -8q22 0 36.5 9.5t14.5 29.5v9zM61 561q5 35 33 60t80 25q60 0 83.5 -31.5t23.5 -82.5v-163h-80v18q-8 -11 -24 -16t-30 -5q-19 0 -36.5 5.5t-31 16t-21.5 27t-8 38.5q0 43 32.5 64t80.5 21h38
q0 18 -5.5 28t-21.5 10q-23 0 -27 -15h-86z" />
    <glyph glyph-name="logicalnot" unicode="&#xac;" horiz-adv-x="507" 
d="M31 375h414v-295h-130v168h-284v127z" />
    <glyph glyph-name="registered" unicode="&#xae;" horiz-adv-x="573" 
d="M127 526q0 -37 10 -69.5t29.5 -57t49.5 -38.5t70 -14t70.5 14t50 38.5t29.5 57t10 69.5t-10 69.5t-29.5 57t-50 38.5t-70.5 14t-70 -14t-49.5 -38.5t-29.5 -57t-10 -69.5zM51 526q0 51 15 96t44.5 78.5t73.5 52.5t102 19t102 -19t74 -52.5t45 -78.5t15 -96t-15 -96
t-45 -78.5t-74 -53t-102 -19.5t-102 19.5t-73.5 53t-44.5 78.5t-15 96zM315 396l-59 99h-6v-99h-58v259h87q40 0 67.5 -18t27.5 -62q0 -29 -16 -49t-46 -25l69 -105h-66zM250 599v-51h34q13 0 21.5 6.5t8.5 19.5t-8.5 19t-21.5 6h-34z" />
    <glyph glyph-name="plusminus" unicode="&#xb1;" horiz-adv-x="531" 
d="M477 0h-421v122h421v-122zM486 295h-161v-140h-119v140h-161v117h161v151h119v-151h161v-117z" />
    <glyph glyph-name="twosuperior" unicode="&#xb2;" horiz-adv-x="378" 
d="M58 639q6 55 41.5 86t89.5 31q63 0 96 -33.5t33 -90.5q0 -29 -9.5 -50.5t-24 -38.5t-32 -30t-34.5 -24l-31 -20.5t-19 -20.5h155v-99h-270v75q0 29 12 50.5t30.5 38t40 29.5t40 26t30.5 27.5t12 33.5q0 11 -4.5 21t-21.5 10q-21 0 -27 -21h-107z" />
    <glyph glyph-name="threesuperior" unicode="&#xb3;" horiz-adv-x="386" 
d="M160 464q8 -22 31 -22q21 0 29.5 11.5t8.5 22.5q0 14 -10.5 24.5t-30.5 10.5h-30v88h25q14 0 21.5 9t7.5 21q0 13 -8 21.5t-19 8.5q-8 0 -16 -4.5t-13 -15.5h-106q8 60 45 90.5t93 30.5q68 0 102.5 -33.5t34.5 -94.5q0 -26 -12 -44t-26 -27q17 -11 32 -33t15 -51
q0 -26 -9 -50t-27.5 -42.5t-46 -29.5t-63.5 -11q-57 0 -95.5 30.5t-46.5 89.5h114z" />
    <glyph glyph-name="mu" unicode="&#xb5;" horiz-adv-x="562" 
d="M396 0v40q-17 -26 -49 -38t-67 -12q-26 0 -49 4.5t-43 15.5v-213h-126v694h132v-304q0 -18 8.5 -32t22.5 -23.5t31.5 -14.5t36.5 -5q39 0 68 22.5t29 63.5v293h132v-491h-126z" />
    <glyph glyph-name="paragraph" unicode="&#xb6;" horiz-adv-x="571" 
d="M522 693v-87h-73v-738h-89v735h-76v-735h-88v448q-38 3 -67 19t-48.5 41t-29.5 57.5t-10 68.5q0 39 11.5 73.5t33.5 61t53.5 41.5t71.5 15h311z" />
    <glyph glyph-name="cedilla" unicode="&#xb8;" horiz-adv-x="277" 
d="M171 50l-19 -49q41 0 60.5 -24t19.5 -55q0 -44 -23.5 -67.5t-74.5 -23.5q-29 0 -49 13t-31 35l52 33q3 -5 9 -12.5t19 -7.5q17 0 23 9t6 21q0 16 -10.5 22t-20.5 6q-17 0 -33 -18l-53 36l39 82h86z" />
    <glyph glyph-name="sterling" unicode="&#xa3;" horiz-adv-x="608" 
d="M396 521q-1 7 -5 15.5t-11.5 15.5t-19 12t-29.5 5q-32 0 -51 -21.5t-19 -62.5v-63h128v-128h-128v-156h112q18 0 30 17t16 52l142 -23q-11 -85 -55.5 -134.5t-123.5 -49.5h-333v138h71v156h-54v128h54v61q0 51 15 92t42.5 70t67 44.5t87.5 15.5q45 0 81.5 -16t62 -41.5
t39 -59t13.5 -67.5h-132z" />
    <glyph glyph-name="currency" unicode="&#xa4;" horiz-adv-x="645" 
d="M135 226q-11 23 -17 47t-6 53q0 26 6 51t17 48l-83 80l92 91l79 -76q23 12 47.5 18t53.5 6q53 0 99 -23l78 76l92 -93l-80 -78q11 -23 17 -47.5t6 -52.5q0 -55 -23 -101l80 -81l-93 -92l-78 79q-22 -11 -47 -17.5t-51 -6.5q-27 0 -52 6.5t-47 17.5l-80 -78l-93 92z
M239 326q0 -19 6.5 -36t18 -29.5t27 -20t33.5 -7.5t34 7.5t27 20t17.5 29.5t6.5 36q0 39 -24 66t-61 27q-36 0 -60.5 -27t-24.5 -66z" />
    <glyph glyph-name="section" unicode="&#xa7;" horiz-adv-x="529" 
d="M195 114q6 -20 24 -32t42 -12q21 0 41.5 11.5t20.5 34.5q0 26 -20 45t-50.5 35t-66 31.5t-66 35.5t-50.5 47t-20 65q0 37 16 64.5t40 49.5q-14 20 -22 41t-8 49q0 41 15.5 70.5t42 48t60.5 27.5t70 9q75 0 120 -37.5t53 -106.5h-134q-5 12 -17.5 19t-26.5 7
q-23 0 -36.5 -8.5t-13.5 -28.5q0 -23 20 -38.5t50.5 -28.5l65.5 -27t65.5 -35.5t50.5 -53t20 -79.5q0 -34 -14.5 -61t-37.5 -49q12 -20 21 -43.5t9 -49.5q0 -41 -18.5 -71t-47 -49.5t-63.5 -29.5t-69 -10q-39 0 -74.5 10t-63.5 29.5t-46 49.5t-22 71h140zM196 417
q-13 -13 -13 -35q0 -13 12 -22.5t33 -19.5l49.5 -24t61.5 -36q8 14 8 37q0 12 -13 22.5t-34.5 21.5l-48.5 24.5t-55 31.5z" />
    <glyph glyph-name="onesuperior" unicode="&#xb9;" horiz-adv-x="263" 
d="M202 749v-400h-105v280h-67v60q33 0 55.5 14t22.5 46h94z" />
    <glyph glyph-name="ordmasculine" unicode="&#xba;" horiz-adv-x="354" 
d="M176 693q67 0 96.5 -38t29.5 -101q0 -67 -31.5 -102.5t-94.5 -35.5t-93.5 35.5t-30.5 102.5q0 63 29 101t95 38zM177 611q-20 0 -28.5 -16.5t-8.5 -40.5t8.5 -40.5t28.5 -16.5t29 16.5t9 40.5t-9 40.5t-29 16.5z" />
    <glyph glyph-name="onequarter" unicode="&#xbc;" horiz-adv-x="761" 
d="M715 61h-36v-61h-106v61h-162v64l161 280h107v-255h36v-89zM583 150v96l-52 -96h52zM213 688v-403h-109v289h-59v66q35 0 55 12.5t20 35.5h93zM618 705l-419 -748l-97 47l418 744z" />
    <glyph glyph-name="onehalf" unicode="&#xbd;" horiz-adv-x="772" 
d="M464 290q0 30 10.5 52t28.5 37t41.5 22t49.5 7q60 0 94 -33.5t34 -90.5q0 -40 -18.5 -66t-43 -46.5t-48 -38t-33.5 -40.5h148v-93h-270v68q0 31 12 55t30 42.5t38.5 33l38.5 28t30 26t12 27.5q0 9 -4 19.5t-20 10.5q-25 0 -25 -20h-105zM618 705l-419 -748l-97 47
l418 744zM214 688v-403h-109v289h-59v66q35 0 55 12.5t20 35.5h93z" />
    <glyph glyph-name="threequarters" unicode="&#xbe;" horiz-adv-x="832" 
d="M51 574q5 57 40 87.5t93 30.5q69 0 99 -32.5t30 -91.5q0 -24 -12.5 -45.5t-29.5 -33.5q19 -11 35 -31.5t16 -55.5q0 -25 -8 -47.5t-24.5 -40t-42.5 -28t-63 -10.5q-59 0 -99 28.5t-45 91.5h110q5 -11 15.5 -14.5t22.5 -3.5q17 0 28 8.5t11 27.5q0 20 -12 28.5t-35 8.5
h-13v74h13q20 0 28 14t8 25q0 16 -8.5 25.5t-22.5 9.5q-28 0 -35 -26zM785 61h-36v-61h-106v61h-162v64l161 280h107v-255h36v-89zM653 150v96l-52 -96h52zM688 705l-419 -748l-97 47l418 744z" />
    <glyph glyph-name="fi" unicode="&#xfb01;" horiz-adv-x="638" 
d="M48 491h75v79q0 66 35 105t104 39q17 0 47.5 -2.5t58.5 -7.5v-117q-32 3 -56.5 4.5t-29.5 1.5q-26 0 -26 -38v-64h112v-120h-112v-371h-133v371h-75v120zM441 0v491h132v-491h-132zM436 582v122h137v-122h-137z" />
    <glyph glyph-name="fl" unicode="&#xfb02;" horiz-adv-x="639" 
d="M442 0v704h132v-704h-132zM48 491h76v79q0 66 34.5 105t103.5 39q18 0 48 -2.5t59 -7.5v-117q-32 3 -57 4.5t-30 1.5q-25 0 -25 -38v-64h112v-120h-112v-371h-133v371h-76v120z" />
    <glyph glyph-name="fraction" unicode="&#x2044;" horiz-adv-x="579" 
d="M552 695l-419 -750l-106 58l418 745z" />
    <glyph glyph-name="Scaron" unicode="&#x160;" horiz-adv-x="630" 
d="M198 207q12 -41 46.5 -62t78.5 -21q18 0 38 4.5t37 14.5t28 24t11 34q0 23 -11.5 38t-31 25t-45 17t-53.5 13q-40 9 -80 21t-72.5 34.5t-53 59t-20.5 95.5q0 49 18.5 86t51.5 62t77.5 38t95.5 13q60 0 106 -14.5t77 -41.5t48 -64t20 -82h-139q-7 35 -38 53.5t-69 18.5
q-50 0 -80 -18.5t-30 -47.5q0 -17 10.5 -28.5t28 -20t41 -15t49.5 -12.5q41 -10 84 -23.5t78 -38.5t57.5 -64t22.5 -100q0 -55 -20.5 -95.5t-55.5 -66.5t-81.5 -39t-98.5 -13q-56 0 -104.5 12t-85 38.5t-59 67.5t-25.5 98h149z" />
    <glyph glyph-name="dotlessi" unicode="&#x131;" horiz-adv-x="259" 
d="M64 0v491h132v-491h-132zM61 582v122h137v-122h-137z" />
    <glyph glyph-name="scaron" unicode="&#x161;" horiz-adv-x="498" 
d="M189 138q5 -18 25 -24.5t40 -6.5q22 0 42.5 9.5t20.5 33.5q0 18 -23.5 25.5t-56.5 13.5q-32 6 -63.5 13t-56.5 23t-41 44t-16 75q0 41 15 70.5t41 48.5t60 28t72 9q37 0 69.5 -9t56.5 -27t38.5 -44.5t16.5 -62.5h-130q-5 12 -18 21t-34 9q-35 0 -46 -10t-11 -24
q0 -11 7 -18t19 -12t27 -8t32 -6q32 -5 63 -12.5t55.5 -24t39.5 -45.5t15 -78q0 -45 -17.5 -75t-45 -48.5t-62.5 -26.5t-69 -8q-39 0 -75 7.5t-64 25t-45.5 45.5t-19.5 69h139z" />
    <glyph glyph-name="zcaron" unicode="&#x17e;" horiz-adv-x="537" 
d="M473 394l-237 -271h239v-123h-415v97l239 271h-225v123h399v-97z" />
    <glyph glyph-name="f_i" horiz-adv-x="661" 
d="M48 491h75v79q0 66 35 105t104 39q17 0 47.5 -2.5t58.5 -7.5v-117q-32 3 -56.5 4.5t-29.5 1.5q-26 0 -26 -38v-64h112v-120h-112v-371h-133v371h-75v120zM441 0v491h132v-491h-132zM436 582v122h137v-122h-137z" />
    <glyph glyph-name="f_l" horiz-adv-x="657" 
d="M442 0v704h132v-704h-132zM48 491h76v79q0 66 34.5 105t103.5 39q18 0 48 -2.5t59 -7.5v-117q-32 3 -57 4.5t-30 1.5q-25 0 -25 -38v-64h112v-120h-112v-371h-133v371h-76v120z" />
    <glyph glyph-name="glyph223" horiz-adv-x="0" 
 />
    </font>
</defs>
</svg>
